<?xml version="1.0" encoding="utf-8"?>
<!-- Generator: Adobe Illustrator 18.1.1, SVG Export Plug-In . SVG Version: 6.00 Build 0)  -->
<svg version="1.1" id="Layer_1" xmlns="http://www.w3.org/2000/svg" xmlns:xlink="http://www.w3.org/1999/xlink" x="0px" y="0px"
	 viewBox="670 275 100 100" enable-background="new 670 275 100 100" xml:space="preserve">
<circle cx="719.4" cy="325" r="49"/>
<g id="Layer_2">
	<path fill="#FFFFFF" d="M682.5,351.4c8.4,0.6,15.7-1.4,22.4-6.5c-3.4-0.4-6.4-1.3-8.9-3.2c-2.5-1.9-4.3-4.3-5.3-7.6
		c2.2,0,4.2,0,6.2,0c0-0.1,0.1-0.3,0.1-0.4c-3.4-1-6.4-2.7-8.6-5.5c-2.2-2.8-3.2-5.9-3.4-9.5c2.2,0.6,4.3,1.2,6.4,1.8
		c0.1-0.1,0.2-0.3,0.2-0.4c-3.1-2.5-5.3-5.5-6.1-9.3c-0.8-3.8-0.3-7.5,1.6-11.1c8.4,9.8,19,15.3,32,16.2c-0.4-3.2-0.4-6.2,0.7-9.1
		c3.9-10.1,16.8-13.4,24.8-6.1c0.9,0.8,1.7,1,2.7,0.6c2.7-0.9,5.3-1.9,8-2.9c-1,3.3-3.3,5.8-5.9,8.2c2.6-0.7,5.2-1.4,7.8-2
		c0.1,0.1,0.2,0.2,0.3,0.3c-2,2-3.8,4.1-5.9,6c-1.1,1-1.5,1.9-1.6,3.4c-0.6,16.5-7.4,29.8-21.8,38.2c-14.7,8.5-29.8,8-44.7-0.1
		C683.3,352,683,351.8,682.5,351.4z"/>
</g>
</svg>
