<?xml version="1.0" encoding="utf-8"?>
<!-- Generator: Adobe Illustrator 18.1.1, SVG Export Plug-In . SVG Version: 6.00 Build 0)  -->
<svg version="1.1" id="Layer_1" xmlns="http://www.w3.org/2000/svg" xmlns:xlink="http://www.w3.org/1999/xlink" x="0px" y="0px"
	 viewBox="395 0 650 650" enable-background="new 395 0 650 650" xml:space="preserve">
<circle cx="719.4" cy="325" r="319.1"/>
<g>
	<path fill="#FFFFFF" d="M719.4,613c-19.5-60.5-39.7-121.5-59.2-182c-14.3-42.9-28-86.4-42.2-129.4c-0.6-1.3-0.6-1.9-0.6-3.2l0,0
		c1.3,0,2.6,0,3.9,0c65.7,0,131.3,0,197.6,0c1.3,0,2.6,0,3.9,0c-0.6,1.3-0.6,2.6-1.3,3.9c-33.1,102.7-66.9,205.4-100.1,308.1
		c0,0.6-0.7,2-0.7,2.6l0,0l-0.6,0.7C719.4,613.6,719.4,613,719.4,613L719.4,613z"/>
	<path fill="#FFFFFF" d="M720,613c0.6-0.6,1.3-1.3,2-2c80.6-103.4,161.2-206.1,241.8-309.4c0.6-0.6,1.3-1.3,2.6-2.6
		c2.6,7.8,5.2,14.9,7.8,22.8c7.8,24.1,16.2,47.4,24,71.5c3.9,11.1,0.7,20.8-8.5,27.3c-88.4,63.7-177.4,128-265.8,191.8
		C722,612.3,721.3,612.3,720,613L720,613z"/>
	<path fill="#FFFFFF" d="M719.4,613c-1.3-0.6-2.6-0.6-3.2-1.3c-35.8-26-70.9-51.3-106.6-77.3c-52.7-38.4-105.9-76.7-158.6-115.7
		c-8.4-6.5-12.4-15.6-8.4-25.4c10.4-31.2,20.1-62.4,30.5-93c0,0,0-0.6,0.6-1.3c2.6,3.2,5.2,6.5,7.8,9.8
		c78,100.7,156.7,201.5,235.3,302.2C717.4,611.6,718,612.3,719.4,613L719.4,613z"/>
	<path fill="#FFFFFF" d="M617.3,297.7c-1.3,0-2.6,0-3.2,0c-45.5,0-91.6,0-137.1,0c-0.6,0-1.9,0-3.2,0c1.3-3.9,2.6-7.1,3.2-11
		c18.9-59.8,38.4-118.9,57.2-178.8c1.9-7.2,9.8-10.4,16.9-7.8c2.6,1.3,3.9,3.9,5.2,6.5c7.2,22.1,14.3,44.2,21.5,66.3
		c13,40.3,26,81.2,39,121.5C616,296.4,616.6,297.1,617.3,297.7L617.3,297.7z"/>
	<path fill="#FFFFFF" d="M823.4,298.4c2.6-8.4,5.2-16.2,7.8-24.7c17.5-54.6,35.1-109.2,52.7-164.5c2-6.5,5.8-9.1,12.3-8.5
		c4.5,0.7,7.2,2.6,8.5,6.5c9.1,28.6,18.2,57.2,28,86.4c11,33.8,21.5,67.6,32.5,101.4c0,1.3,0.6,2,0.6,3.2
		C918.2,298.4,870.8,298.4,823.4,298.4z"/>
</g>
</svg>
