<?xml version="1.0" encoding="utf-8"?>
<!-- Generator: Adobe Illustrator 18.1.1, SVG Export Plug-In . SVG Version: 6.00 Build 0)  -->
<svg version="1.1" xmlns="http://www.w3.org/2000/svg" xmlns:xlink="http://www.w3.org/1999/xlink" x="0px" y="0px"
	 viewBox="0 0 100 100" enable-background="new 0 0 100 100" xml:space="preserve">
<g id="Layer_1" display="none">
	<circle display="inline" cx="49.9" cy="50" r="49.1"/>
	<g display="inline">
		<path d="M49.8,94.8c-3.5-10.6-6.9-21.3-10.4-31.9c-2.5-7.6-4.9-15.1-7.4-22.7C32,40,32,39.8,32,39.6l0,0c0.2,0,0.4,0.1,0.7,0.1
			c11.5,0,23.1,0,34.6,0c0.2,0,0.4,0,0.7,0c-0.1,0.3-0.1,0.5-0.2,0.7c-5.9,18-11.7,36-17.6,54.1c0,0.1-0.1,0.3-0.1,0.4c0,0,0,0,0,0
			c0,0-0.1,0.1-0.1,0.1C49.9,94.9,49.9,94.8,49.8,94.8L49.8,94.8z"/>
		<path d="M50,94.8c0.1-0.1,0.3-0.2,0.4-0.4c14.1-18.1,28.3-36.2,42.4-54.3c0.1-0.1,0.2-0.3,0.4-0.5c0.5,1.4,0.9,2.6,1.3,3.9
			c1.4,4.2,2.8,8.4,4.2,12.5c0.6,1.9,0.1,3.6-1.5,4.8C81.7,72.2,66.1,83.4,50.5,94.6C50.4,94.7,50.2,94.7,50,94.8
			C50,94.8,50,94.8,50,94.8z"/>
		<path d="M49.8,94.8c-0.2-0.1-0.4-0.1-0.6-0.2C43,90,36.8,85.5,30.6,81C21.3,74.2,12,67.5,2.7,60.7c-1.5-1.1-2.1-2.7-1.5-4.5
			C3,50.8,4.8,45.3,6.6,39.9c0,0,0-0.1,0.1-0.2c0.5,0.6,0.9,1.2,1.4,1.8c13.8,17.7,27.6,35.3,41.4,53C49.5,94.6,49.7,94.7,49.8,94.8
			C49.8,94.8,49.8,94.8,49.8,94.8z"/>
		<path d="M32,39.6c-0.2,0-0.4,0.1-0.6,0.1c-8,0-16.1,0-24.1,0c-0.2,0-0.3,0-0.6,0c0.2-0.7,0.4-1.3,0.6-1.9
			C10.6,27.3,14,16.9,17.3,6.4c0.4-1.2,1.7-1.8,2.9-1.3c0.5,0.2,0.7,0.6,0.9,1.1c1.2,3.9,2.5,7.7,3.7,11.6
			c2.3,7.1,4.6,14.2,6.8,21.3C31.8,39.3,31.9,39.4,32,39.6C32,39.6,32,39.6,32,39.6z"/>
		<path d="M68.1,39.6c0.5-1.5,0.9-2.9,1.4-4.3c3.1-9.6,6.2-19.2,9.3-28.8c0.4-1.2,1-1.6,2.2-1.5c0.8,0.1,1.2,0.4,1.4,1.2
			c1.6,5,3.2,10.1,4.9,15.1c1.9,5.9,3.8,11.8,5.7,17.7c0.1,0.2,0.1,0.4,0.2,0.6C84.8,39.6,76.5,39.6,68.1,39.6z"/>
	</g>
</g>
<g id="Layer_2">
	<path d="M50,1C22.9,1,1,22.9,1,50c0,21.7,14,40,33.5,46.5c2.4,0.4,3.3-1.1,3.3-2.4c0-1.2,0-5-0.1-9.1c-13.6,3-16.5-5.8-16.5-5.8
		C19,73.6,15.8,72,15.8,72c-4.5-3,0.3-3,0.3-3c4.9,0.3,7.5,5,7.5,5c4.4,7.5,11.5,5.3,14.3,4.1c0.4-3.2,1.7-5.3,3.1-6.5
		c-10.9-1.2-22.3-5.4-22.3-24.2c0-5.4,1.9-9.7,5-13.2c-0.5-1.2-2.2-6.2,0.5-13c0,0,4.1-1.3,13.5,5c3.9-1.1,8.1-1.6,12.3-1.6
		c4.2,0,8.4,0.6,12.3,1.7c9.3-6.3,13.5-5,13.5-5c2.7,6.8,1,11.7,0.5,13c3.1,3.4,5,7.8,5,13.2c0,18.8-11.5,23-22.4,24.2
		c1.8,1.5,3.3,4.5,3.3,9.1c0,6.5-0.1,11.8-0.1,13.4c0,1.3,0.9,2.8,3.4,2.4C85,90,99,71.6,99,50C99,22.9,77.1,1,50,1z"/>
</g>
</svg>
