<svg xmlns="http://www.w3.org/2000/svg" id="Layer_1" width="431" height="406" viewBox="0 0 430.6 406"><style>.a{fill:#ffffff;}</style><path d="M90.6 185c-0.5 0.3-1.3 0.3-1.7 0l-45.4-26.1c-0.5-0.3-0.9-0.9-0.9-1.5v-52.2c0-0.5 0.4-1.2 0.9-1.5l45.4-26.1c0.5-0.3 1.3-0.3 1.7 0l45.4 26.1c0.5 0.3 0.9 0.9 0.9 1.5v52.2c0 0.6-0.4 1.2-0.9 1.5L90.6 185zM48.7 153.9c0 0.6 0.4 1.2 0.9 1.5l39.3 22.6c0.5 0.3 1.3 0.3 1.7 0l39.3-22.6c0.5-0.3 0.9-0.9 0.9-1.5v-45.2c0-0.5-0.4-1.2-0.9-1.5L90.6 84.7c-0.5-0.3-1.3-0.3-1.7 0l-39.3 22.6c-0.5 0.3-0.9 0.9-0.9 1.5V153.9z" class="a"/><path d="M89.8 185.7c-0.4 0-0.8-0.1-1.1-0.3l-45.4-26.1c-0.6-0.4-1.1-1.2-1.1-1.9v-52.2c0-0.7 0.5-1.6 1.1-1.9L88.7 77.2c0.6-0.4 1.6-0.4 2.2 0l45.4 26.1c0.6 0.4 1.1 1.2 1.1 1.9v52.2c0 0.7-0.5 1.6-1.1 1.9l-45.4 26.1C90.6 185.6 90.2 185.7 89.8 185.7M89.8 77.9c-0.2 0-0.5 0-0.6 0.1L43.8 104.2c-0.3 0.2-0.6 0.7-0.6 1.1v52.2c0 0.4 0.3 0.9 0.6 1.1l45.4 26.1c0.3 0.2 0.9 0.2 1.2 0l45.4-26.1c0.3-0.2 0.6-0.7 0.6-1.1v-52.2c0-0.4-0.3-0.9-0.6-1.1L90.4 78.1C90.2 78 90 77.9 89.8 77.9M89.8 178.7c-0.4 0-0.8-0.1-1.1-0.3l-39.3-22.6c-0.6-0.4-1.1-1.2-1.1-1.9v-45.2c0-0.7 0.5-1.6 1.1-1.9L88.7 84.2c0.6-0.4 1.6-0.4 2.2 0l39.3 22.6c0.6 0.4 1.1 1.2 1.1 1.9v45.2c0 0.7-0.5 1.6-1.1 1.9l-39.3 22.6C90.6 178.6 90.2 178.7 89.8 178.7M89.8 85c-0.2 0-0.5 0-0.6 0.1l-39.3 22.6c-0.3 0.2-0.6 0.7-0.6 1.1v45.2c0 0.4 0.3 0.9 0.6 1.1l39.3 22.6c0.3 0.2 0.9 0.2 1.2 0l39.3-22.6c0.3-0.2 0.6-0.7 0.6-1.1v-45.2c0-0.4-0.3-0.9-0.6-1.1L90.4 85.1C90.2 85 90 85 89.8 85" class="a"/><path d="M90.6 188.5c-0.5 0.3-1.3 0.3-1.7 0l-48.4-27.8c-0.5-0.3-0.9-0.9-0.9-1.5v-55.7c0-0.5 0.4-1.2 0.9-1.5l48.4-27.8c0.5-0.3 1.3-0.3 1.7 0L139 102c0.5 0.3 0.9 0.9 0.9 1.5v55.7c0 0.6-0.4 1.2-0.9 1.5L90.6 188.5zM45.6 155.7c0 0.6 0.4 1.2 0.9 1.5l42.4 24.4c0.5 0.3 1.3 0.3 1.7 0l42.4-24.4c0.5-0.3 0.9-0.9 0.9-1.5V107c0-0.5-0.4-1.2-0.9-1.5L90.6 81.1c-0.5-0.3-1.3-0.3-1.7 0l-42.4 24.4c-0.5 0.3-0.9 0.9-0.9 1.5V155.7zM90.6 181.5c-0.5 0.3-1.3 0.3-1.7 0l-42.3-24.3c-0.5-0.3-0.9-0.9-0.9-1.5v-48.6c0-0.5 0.4-1.2 0.9-1.5l42.3-24.3c0.5-0.3 1.3-0.3 1.7 0l42.3 24.3c0.5 0.3 0.9 0.9 0.9 1.5v48.6c0 0.6-0.4 1.2-0.9 1.5L90.6 181.5zM51.7 152.2c0 0.6 0.4 1.2 0.9 1.5l36.3 20.9c0.5 0.3 1.3 0.3 1.7 0l36.3-20.9c0.5-0.3 0.9-0.9 0.9-1.5v-41.7c0-0.5-0.4-1.2-0.9-1.5L90.6 88.1c-0.5-0.3-1.3-0.3-1.7 0l-36.3 20.9c-0.5 0.3-0.9 0.9-0.9 1.5V152.2z" class="a"/><path d="M89.8 189.2c-0.4 0-0.8-0.1-1.1-0.3l-48.4-27.8c-0.6-0.4-1.1-1.2-1.1-1.9v-55.7c0-0.7 0.5-1.6 1.1-1.9L88.7 73.8c0.6-0.4 1.6-0.4 2.2 0l48.4 27.8c0.6 0.4 1.1 1.2 1.1 1.9v55.7c0 0.7-0.5 1.6-1.1 1.9l-48.4 27.8C90.6 189.1 90.2 189.2 89.8 189.2M89.8 74.5c-0.2 0-0.5 0-0.6 0.1L40.8 102.4c-0.3 0.2-0.6 0.7-0.6 1.1v55.7c0 0.4 0.3 0.9 0.6 1.1l48.4 27.8c0.3 0.2 0.9 0.2 1.2 0l48.4-27.8c0.3-0.2 0.6-0.7 0.6-1.1v-55.7c0-0.4-0.3-0.9-0.6-1.1L90.4 74.6C90.2 74.5 90 74.5 89.8 74.5M89.8 182.3c-0.4 0-0.8-0.1-1.1-0.3l-42.4-24.4c-0.6-0.4-1.1-1.2-1.1-1.9v-48.7c0-0.7 0.5-1.6 1.1-1.9L88.7 80.7c0.6-0.4 1.6-0.4 2.2 0l42.4 24.4c0.6 0.4 1.1 1.2 1.1 1.9v48.7c0 0.7-0.5 1.6-1.1 1.9l-42.4 24.4C90.6 182.2 90.2 182.3 89.8 182.3M89.8 81.5c-0.2 0-0.5 0-0.6 0.1l-42.3 24.3c-0.3 0.2-0.6 0.7-0.6 1.1v48.6c0 0.4 0.3 0.9 0.6 1.1l42.3 24.3c0.3 0.2 0.9 0.2 1.2 0l42.3-24.3c0.3-0.2 0.6-0.7 0.6-1.1v-48.6c0-0.4-0.3-0.9-0.6-1.1l-42.3-24.3C90.2 81.5 90 81.5 89.8 81.5M89.8 175.3c-0.4 0-0.8-0.1-1.1-0.3L52.3 154.1c-0.6-0.4-1.1-1.2-1.1-1.9V110.5c0-0.7 0.5-1.6 1.1-1.9L88.7 87.7c0.6-0.4 1.6-0.4 2.2 0l36.3 20.9c0.6 0.4 1.1 1.2 1.1 1.9v41.7c0 0.7-0.5 1.6-1.1 1.9l-36.3 20.9C90.6 175.2 90.2 175.3 89.8 175.3M89.8 88.4c-0.2 0-0.5 0-0.6 0.1l-36.3 20.9c-0.3 0.2-0.6 0.7-0.6 1.1v41.7c0 0.4 0.3 0.9 0.6 1.1l36.3 20.9c0.3 0.2 0.9 0.2 1.2 0l36.3-20.9c0.3-0.2 0.6-0.7 0.6-1.1V110.5c0-0.4-0.3-0.9-0.6-1.1L90.4 88.6C90.2 88.5 90 88.4 89.8 88.4" class="a"/><path d="M92.3 80.7c0 0.6-0.4 1-1 1h-3c-0.5 0-1-0.4-1-1V35c0-0.5 0.5-1 1-1h3c0.6 0 1 0.5 1 1V80.7z" class="a"/><path d="M91.3 82.2h-3c-0.8 0-1.5-0.7-1.5-1.5V35c0-0.8 0.7-1.5 1.5-1.5h3c0.8 0 1.5 0.7 1.5 1.5v45.6C92.8 81.5 92.1 82.2 91.3 82.2M88.3 34.5c-0.3 0-0.5 0.2-0.5 0.5v45.6c0 0.3 0.2 0.5 0.5 0.5h3c0.3 0 0.5-0.2 0.5-0.5V35c0-0.3-0.2-0.5-0.5-0.5H88.3z" class="a"/><path d="M95.3 83.7c0 0.6-0.4 1-1 1h-9c-0.5 0-1-0.4-1-1V32c0-0.5 0.5-1 1-1h9c0.6 0 1 0.5 1 1V83.7z" class="a"/><path d="M94.3 85.2h-9c-0.8 0-1.5-0.7-1.5-1.5V32c0-0.8 0.7-1.5 1.5-1.5h9c0.8 0 1.5 0.7 1.5 1.5v51.6C95.8 84.5 95.1 85.2 94.3 85.2M85.3 31.5c-0.3 0-0.5 0.2-0.5 0.5v51.6c0 0.3 0.2 0.5 0.5 0.5h9c0.3 0 0.5-0.2 0.5-0.5V32c0-0.3-0.2-0.5-0.5-0.5H85.3z" class="a"/><path d="M47.7 204.3c0 0.6-0.4 1-1 1h-3c-0.5 0-1-0.4-1-1v-45.6c0-0.5 0.5-1 1-1h3c0.6 0 1 0.5 1 1V204.3z" class="a"/><path d="M46.7 205.8h-3c-0.8 0-1.5-0.7-1.5-1.5v-45.6c0-0.8 0.7-1.5 1.5-1.5h3c0.8 0 1.5 0.7 1.5 1.5v45.6C48.2 205.2 47.5 205.8 46.7 205.8M43.7 158.2c-0.3 0-0.5 0.2-0.5 0.5v45.6c0 0.3 0.2 0.5 0.5 0.5h3c0.3 0 0.5-0.2 0.5-0.5v-45.6c0-0.3-0.2-0.5-0.5-0.5H43.7z" class="a"/><path d="M50.7 207.3c0 0.6-0.4 1-1 1h-9c-0.5 0-1-0.4-1-1v-51.6c0-0.5 0.5-1 1-1h9c0.6 0 1 0.5 1 1V207.3z" class="a"/><path d="M49.7 208.8h-9c-0.8 0-1.5-0.7-1.5-1.5v-51.6c0-0.8 0.7-1.5 1.5-1.5h9c0.8 0 1.5 0.7 1.5 1.5v51.6C51.2 208.2 50.5 208.8 49.7 208.8M40.7 155.2c-0.3 0-0.5 0.2-0.5 0.5v51.6c0 0.3 0.2 0.5 0.5 0.5h9c0.3 0 0.5-0.2 0.5-0.5v-51.6c0-0.3-0.2-0.5-0.5-0.5H40.7z" class="a"/><path d="M127.1 164.1c-0.5 0.3-1.1 0.1-1.4-0.4l-1.5-2.6c-0.3-0.5-0.1-1.1 0.4-1.4l39.6-22.7c0.5-0.3 1.1-0.1 1.4 0.4l1.5 2.6c0.3 0.5 0.1 1.1-0.4 1.4L127.1 164.1z" class="a"/><path d="M126.6 164.7c-0.5 0-1-0.3-1.3-0.8l-1.5-2.6c-0.2-0.3-0.3-0.7-0.1-1.1 0.1-0.4 0.4-0.7 0.7-0.9l39.6-22.7c0.7-0.4 1.6-0.2 2 0.6l1.5 2.6c0.2 0.3 0.3 0.8 0.1 1.1 -0.1 0.4-0.4 0.7-0.7 0.9l-39.6 22.7C127.1 164.6 126.8 164.7 126.6 164.7M164.6 137.3c-0.1 0-0.2 0-0.2 0.1l-39.6 22.7c-0.1 0.1-0.2 0.2-0.2 0.3 0 0.1 0 0.3 0 0.4l1.5 2.6c0.1 0.2 0.4 0.3 0.7 0.2l39.6-22.7c0.1-0.1 0.2-0.2 0.2-0.3 0-0.1 0-0.3 0-0.4l-1.5-2.6C165 137.4 164.8 137.3 164.6 137.3" class="a"/><path d="M125.9 168.1c-0.5 0.3-1.1 0.1-1.4-0.4l-4.5-7.8c-0.3-0.5-0.1-1.1 0.4-1.4l44.8-25.7c0.5-0.3 1.1-0.1 1.4 0.4l4.5 7.8c0.3 0.5 0.1 1.1-0.4 1.4L125.9 168.1z" class="a"/><path d="M125.5 168.8c-0.5 0-1-0.3-1.3-0.8l-4.5-7.8c-0.2-0.3-0.3-0.8-0.1-1.1 0.1-0.4 0.4-0.7 0.7-0.9l44.8-25.7c0.7-0.4 1.6-0.2 2 0.6l4.5 7.8c0.2 0.3 0.3 0.8 0.1 1.1 -0.1 0.4-0.4 0.7-0.7 0.9l-44.8 25.7C126 168.7 125.7 168.8 125.5 168.8M165.7 133.3c-0.1 0-0.2 0-0.2 0.1l-44.8 25.7c-0.1 0.1-0.2 0.2-0.2 0.3 0 0.1 0 0.3 0 0.4l4.5 7.8c0.1 0.2 0.4 0.3 0.7 0.2l44.8-25.7c0.1-0.1 0.2-0.2 0.2-0.3s0-0.3 0-0.4l-4.5-7.8C166.1 133.3 165.9 133.3 165.7 133.3" class="a"/><path d="M135.6 107.1c-0.5 0.3-1.1 0.1-1.4-0.4l-1.5-2.6c-0.3-0.5-0.1-1.1 0.4-1.4l39.6-22.7c0.5-0.3 1.1-0.1 1.4 0.4l1.5 2.6c0.3 0.5 0.1 1.1-0.4 1.4L135.6 107.1z" class="a"/><path d="M135.1 107.7c-0.5 0-1-0.3-1.3-0.8l-1.5-2.6c-0.2-0.3-0.3-0.7-0.1-1.1 0.1-0.4 0.4-0.7 0.7-0.9l39.6-22.7c0.7-0.4 1.6-0.2 2 0.6l1.5 2.6c0.2 0.3 0.3 0.8 0.1 1.1 -0.1 0.4-0.4 0.7-0.7 0.9l-39.6 22.7C135.6 107.6 135.4 107.7 135.1 107.7M173.2 80.4c-0.1 0-0.2 0-0.2 0.1l-39.6 22.7c-0.1 0.1-0.2 0.2-0.2 0.3 0 0.1 0 0.3 0 0.4l1.5 2.6c0.1 0.2 0.4 0.3 0.7 0.2L174.9 83.9c0.1-0.1 0.2-0.2 0.2-0.3 0-0.1 0-0.3 0-0.4l-1.5-2.6C173.5 80.5 173.4 80.4 173.2 80.4" class="a"/><path d="M134.5 111.2c-0.5 0.3-1.1 0.1-1.4-0.4l-4.5-7.8c-0.3-0.5-0.1-1.1 0.4-1.4l44.8-25.7c0.5-0.3 1.1-0.1 1.4 0.4l4.5 7.8c0.3 0.5 0.1 1.1-0.4 1.4L134.5 111.2z" class="a"/><path d="M134 111.8c-0.5 0-1-0.3-1.3-0.8l-4.5-7.8c-0.2-0.3-0.3-0.8-0.1-1.1 0.1-0.4 0.4-0.7 0.7-0.9l44.8-25.7c0.7-0.4 1.6-0.2 2 0.6l4.5 7.8c0.2 0.3 0.3 0.8 0.1 1.1 -0.1 0.4-0.4 0.7-0.7 0.9l-44.8 25.7C134.5 111.7 134.3 111.8 134 111.8M174.3 76.3c-0.1 0-0.2 0-0.2 0.1l-44.8 25.7c-0.1 0.1-0.2 0.2-0.2 0.3 0 0.1 0 0.3 0 0.4l4.5 7.8c0.1 0.2 0.4 0.3 0.7 0.2l44.8-25.7c0.1-0.1 0.2-0.2 0.2-0.3 0-0.1 0-0.3 0-0.4l-4.5-7.8C174.6 76.4 174.5 76.3 174.3 76.3" class="a"/><path d="M169.6 85.6c-0.5-0.3-0.9-1-0.9-1.5l-0.1-52.4c0-0.5 0.4-1.2 0.9-1.5l45.2-26.1c0.5-0.3 1.3-0.3 1.7 0l45.3 26.3c0.5 0.3 0.9 1 0.9 1.5l0.1 52.4c0 0.6-0.4 1.2-0.9 1.5l-45.2 26.1c-0.5 0.3-1.3 0.3-1.7 0L169.6 85.6zM175.6 33.8c-0.5 0.3-0.9 1-0.9 1.5l0.1 45.3c0 0.6 0.4 1.2 0.9 1.5l39.2 22.8c0.5 0.3 1.3 0.3 1.7 0l39.1-22.6c0.5-0.3 0.9-0.9 0.9-1.5l-0.1-45.3c0-0.5-0.4-1.2-0.9-1.5l-39.2-22.8c-0.5-0.3-1.3-0.3-1.7 0L175.6 33.8z" class="a"/><path d="M215.8 112.6c-0.4 0-0.8-0.1-1.1-0.3l-45.3-26.3c-0.6-0.4-1.1-1.2-1.1-1.9l-0.1-52.4c0-0.7 0.5-1.6 1.1-1.9l45.2-26.1c0.6-0.4 1.6-0.4 2.2 0l45.3 26.3c0.6 0.4 1.1 1.2 1.1 1.9l0.1 52.4c0 0.7-0.5 1.6-1.1 1.9l-45.2 26.1C216.6 112.5 216.2 112.6 215.8 112.6M169.9 85.2l45.3 26.3c0.3 0.2 0.9 0.2 1.2 0l45.2-26.1c0.3-0.2 0.6-0.7 0.6-1.1l-0.1-52.4c0-0.4-0.3-0.9-0.6-1.1L216.2 4.6c-0.3-0.2-0.9-0.2-1.2 0l-45.2 26.1c-0.3 0.2-0.6 0.7-0.6 1.1l0.1 52.4C169.3 84.5 169.6 85 169.9 85.2M215.8 105.6c-0.4 0-0.8-0.1-1.1-0.3l-39.2-22.8c-0.6-0.4-1.1-1.2-1.1-1.9l-0.1-45.3c0-0.7 0.5-1.6 1.1-1.9l39.1-22.6c0.6-0.4 1.6-0.4 2.2 0l39.2 22.8c0.6 0.4 1.1 1.2 1.1 1.9l0.1 45.3c0 0.7-0.5 1.6-1.1 1.9l-39.1 22.6C216.6 105.5 216.2 105.6 215.8 105.6M175.9 34.2c-0.3 0.2-0.6 0.7-0.6 1.1l0.1 45.3c0 0.4 0.3 0.9 0.6 1.1l39.2 22.8c0.3 0.2 0.9 0.2 1.2 0l39.1-22.6c0.3-0.2 0.6-0.7 0.6-1.1l-0.1-45.3c0-0.4-0.3-0.9-0.6-1.1l-39.2-22.8c-0.3-0.2-0.9-0.2-1.2 0L175.9 34.2z" class="a"/><path d="M216.7 115.4c-0.5 0.3-1.3 0.3-1.7 0l-48.3-28c-0.5-0.3-0.9-1-0.9-1.5l-0.1-55.8c0-0.5 0.4-1.2 0.9-1.5l48.2-27.8c0.5-0.3 1.3-0.3 1.7 0l48.3 28c0.5 0.3 0.9 1 0.9 1.5l0.1 55.8c0 0.6-0.4 1.2-0.9 1.5L216.7 115.4zM171.8 82.4c0 0.6 0.4 1.2 0.9 1.5l42.3 24.5c0.5 0.3 1.3 0.3 1.7 0l42.2-24.4c0.5-0.3 0.9-0.9 0.9-1.5l-0.1-48.9c0-0.5-0.4-1.2-0.9-1.5L216.5 7.6c-0.5-0.3-1.3-0.3-1.7 0l-42.2 24.4c-0.5 0.3-0.9 1-0.9 1.5L171.8 82.4zM216.7 108.3c-0.5 0.3-1.3 0.3-1.7 0l-42.2-24.5c-0.5-0.3-0.9-1-0.9-1.5l-0.1-48.8c0-0.5 0.4-1.2 0.9-1.5l42.1-24.3c0.5-0.3 1.3-0.3 1.7 0l42.2 24.5c0.5 0.3 0.9 1 0.9 1.5l0.1 48.8c0 0.6-0.4 1.2-0.9 1.5L216.7 108.3zM177.8 78.9c0 0.6 0.4 1.2 0.9 1.5l36.2 21c0.5 0.3 1.3 0.3 1.7 0l36.1-20.8c0.5-0.3 0.9-0.9 0.9-1.5l-0.1-41.9c0-0.5-0.4-1.2-0.9-1.5l-36.2-21c-0.5-0.3-1.3-0.3-1.7 0l-36.1 20.8c-0.5 0.3-0.9 1-0.9 1.5L177.8 78.9z" class="a"/><path d="M215.8 116.1c-0.4 0-0.8-0.1-1.1-0.3l-48.3-28c-0.6-0.4-1.1-1.2-1.1-1.9l-0.1-55.8c0-0.7 0.5-1.6 1.1-1.9l48.2-27.8c0.6-0.4 1.6-0.4 2.2 0l48.3 28c0.6 0.4 1.1 1.2 1.1 1.9l0.1 55.8c0 0.7-0.5 1.6-1.1 1.9l-48.2 27.8C216.6 116 216.2 116.1 215.8 116.1M215.6 1c-0.2 0-0.5 0-0.6 0.1l-48.2 27.8c-0.3 0.2-0.6 0.7-0.6 1.1l0.1 55.8c0 0.4 0.3 0.9 0.6 1.1l48.3 28c0.3 0.2 0.9 0.2 1.2 0l48.2-27.8c0.3-0.2 0.6-0.7 0.6-1.1l-0.1-55.8c0-0.4-0.3-0.9-0.6-1.1L216.2 1.1C216.1 1 215.8 1 215.6 1M215.8 109.2c-0.4 0-0.8-0.1-1.1-0.3L172.4 84.3c-0.6-0.4-1.1-1.2-1.1-1.9l-0.1-48.9c0-0.7 0.5-1.6 1.1-1.9l42.2-24.4c0.6-0.4 1.6-0.4 2.2 0l42.3 24.5c0.6 0.4 1.1 1.2 1.1 1.9l0.1 48.9c0 0.7-0.5 1.6-1.1 1.9l-42.2 24.4C216.6 109.1 216.2 109.2 215.8 109.2M215.6 8c-0.2 0-0.5 0-0.6 0.1l-42.1 24.3c-0.3 0.2-0.6 0.7-0.6 1.1l0.1 48.8c0 0.4 0.3 0.9 0.6 1.1l42.2 24.5c0.3 0.2 0.9 0.2 1.2 0L258.5 83.6c0.3-0.2 0.6-0.7 0.6-1.1l-0.1-48.8c0-0.4-0.3-0.9-0.6-1.1l-42.2-24.5C216 8.1 215.8 8 215.6 8M215.8 102.1c-0.4 0-0.8-0.1-1.1-0.3l-36.2-21c-0.6-0.4-1.1-1.2-1.1-1.9l-0.1-41.9c0-0.7 0.5-1.6 1.1-1.9l36.1-20.8c0.6-0.4 1.6-0.4 2.2 0l36.2 21c0.6 0.4 1.1 1.2 1.1 1.9l0.1 41.9c0 0.7-0.5 1.6-1.1 1.9l-36.1 20.8C216.6 102 216.2 102.1 215.8 102.1M215.6 15c-0.2 0-0.5 0-0.6 0.1L178.9 35.9c-0.3 0.2-0.6 0.7-0.6 1.1l0.1 41.9c0 0.4 0.3 0.9 0.6 1.1l36.2 21c0.3 0.2 0.9 0.2 1.2 0l36.1-20.8c0.3-0.2 0.6-0.7 0.6-1.1l-0.1-41.9c0-0.4-0.3-0.9-0.6-1.1l-36.2-21C216 15 215.8 15 215.6 15" class="a"/><path d="M260.8 34.9c-0.5 0.3-1.1 0.1-1.4-0.4l-1.5-2.6c-0.3-0.5-0.1-1.1 0.4-1.4l39.5-22.8c0.5-0.3 1.1-0.1 1.4 0.4l1.5 2.6c0.3 0.5 0.1 1.1-0.4 1.4L260.8 34.9z" class="a"/><path d="M260.3 35.5c-0.5 0-1-0.3-1.3-0.7l-1.5-2.6c-0.2-0.3-0.3-0.7-0.1-1.1 0.1-0.4 0.4-0.7 0.7-0.9l39.5-22.8c0.3-0.2 0.8-0.3 1.1-0.1 0.4 0.1 0.7 0.4 0.9 0.7l1.5 2.6c0.4 0.7 0.2 1.6-0.5 2l-39.5 22.8C260.8 35.4 260.6 35.5 260.3 35.5M298.3 8.1c-0.1 0-0.2 0-0.2 0.1l-39.5 22.8c-0.1 0.1-0.2 0.2-0.2 0.3 0 0.1 0 0.3 0 0.4l1.5 2.6c0.1 0.2 0.4 0.3 0.7 0.2l39.5-22.8c0.2-0.1 0.3-0.4 0.2-0.7l-1.5-2.6c-0.1-0.1-0.2-0.2-0.3-0.2C298.4 8.1 298.4 8.1 298.3 8.1" class="a"/><path d="M259.7 39c-0.5 0.3-1.1 0.1-1.4-0.4l-4.5-7.8c-0.3-0.5-0.1-1.1 0.4-1.4l44.7-25.8c0.5-0.3 1.1-0.1 1.4 0.4l4.5 7.8c0.3 0.5 0.1 1.1-0.4 1.4L259.7 39z" class="a"/><path d="M259.2 39.6c-0.1 0-0.3 0-0.4-0.1 -0.4-0.1-0.7-0.4-0.9-0.7l-4.5-7.8c-0.4-0.7-0.2-1.6 0.6-2l44.7-25.8c0.3-0.2 0.8-0.3 1.1-0.1 0.4 0.1 0.7 0.4 0.9 0.7l4.5 7.8c0.4 0.7 0.2 1.6-0.5 2.1l-44.7 25.8C259.7 39.5 259.5 39.6 259.2 39.6M299.4 4c-0.1 0-0.2 0-0.2 0.1l-44.7 25.8c-0.2 0.1-0.3 0.4-0.2 0.7l4.5 7.8c0.1 0.1 0.2 0.2 0.3 0.2 0.1 0 0.3 0 0.4 0l44.7-25.8c0.2-0.1 0.3-0.4 0.2-0.7l-4.5-7.8c-0.1-0.1-0.2-0.2-0.3-0.2C299.5 4 299.5 4 299.4 4" class="a"/><path d="M131.4 58.1c-0.5 0.3-1.1 0.1-1.4-0.4l-1.5-2.6c-0.3-0.5-0.1-1.1 0.4-1.4l39.5-22.8c0.5-0.3 1.1-0.1 1.4 0.4l1.5 2.6c0.3 0.5 0.1 1.1-0.4 1.4L131.4 58.1z" class="a"/><path d="M130.9 58.7c-0.5 0-1-0.3-1.3-0.7l-1.5-2.6c-0.2-0.3-0.3-0.7-0.1-1.1 0.1-0.4 0.4-0.7 0.7-0.9l39.5-22.8c0.3-0.2 0.8-0.3 1.1-0.1 0.4 0.1 0.7 0.4 0.9 0.7l1.5 2.6c0.4 0.7 0.2 1.6-0.5 2l-39.5 22.8C131.4 58.7 131.2 58.7 130.9 58.7M169 31.3c-0.1 0-0.2 0-0.2 0.1l-39.5 22.8c-0.1 0.1-0.2 0.2-0.2 0.3 0 0.1 0 0.3 0 0.4l1.5 2.6c0.1 0.2 0.4 0.3 0.7 0.2l39.5-22.8c0.2-0.1 0.3-0.4 0.2-0.7l-1.5-2.6c-0.1-0.1-0.2-0.2-0.3-0.2C169 31.3 169 31.3 169 31.3" class="a"/><path d="M130.3 62.2c-0.5 0.3-1.1 0.1-1.4-0.4l-4.5-7.8c-0.3-0.5-0.1-1.1 0.4-1.4l44.7-25.8c0.5-0.3 1.1-0.1 1.4 0.4l4.5 7.8c0.3 0.5 0.1 1.1-0.4 1.4L130.3 62.2z" class="a"/><path d="M129.8 62.8c-0.1 0-0.3 0-0.4-0.1 -0.4-0.1-0.7-0.4-0.9-0.7l-4.5-7.8c-0.4-0.7-0.2-1.6 0.6-2l44.7-25.8c0.3-0.2 0.8-0.3 1.1-0.1 0.4 0.1 0.7 0.4 0.9 0.7l4.5 7.8c0.4 0.7 0.2 1.6-0.5 2.1l-44.7 25.8C130.4 62.7 130.1 62.8 129.8 62.8M170.1 27.2c-0.1 0-0.2 0-0.2 0.1l-44.7 25.8c-0.2 0.1-0.3 0.4-0.2 0.7l4.5 7.8c0.1 0.1 0.2 0.2 0.3 0.2 0.1 0 0.3 0 0.4 0l44.7-25.8c0.2-0.1 0.3-0.4 0.2-0.7l-4.5-7.8c-0.1-0.1-0.2-0.2-0.3-0.2C170.1 27.2 170.1 27.2 170.1 27.2" class="a"/><path d="M246.8 129.2c-0.3 0.5-0.9 0.6-1.4 0.4l-39.5-22.9c-0.5-0.3-0.6-0.9-0.4-1.4l1.5-2.6c0.3-0.5 0.9-0.6 1.4-0.4l39.5 22.9c0.5 0.3 0.6 0.9 0.4 1.4L246.8 129.2z" class="a"/><path d="M246 130.2c-0.3 0-0.5-0.1-0.7-0.2l-39.5-22.9c-0.3-0.2-0.6-0.5-0.7-0.9s0-0.8 0.2-1.1l1.5-2.6c0.4-0.7 1.3-1 2.1-0.5l39.5 22.9c0.3 0.2 0.6 0.5 0.7 0.9 0.1 0.4 0.1 0.8-0.2 1.1l-1.5 2.6C247 130 246.5 130.2 246 130.2M208 102.7c-0.2 0-0.3 0.1-0.4 0.2l-1.5 2.6c-0.1 0.1-0.1 0.2 0 0.4 0 0.1 0.1 0.2 0.2 0.3l39.5 22.9c0.2 0.1 0.5 0.1 0.7-0.2l1.5-2.6c0.1-0.1 0.1-0.2 0.1-0.4 0-0.1-0.1-0.2-0.2-0.3l-39.5-22.9C208.2 102.7 208.1 102.7 208 102.7" class="a"/><path d="M247.9 133.3c-0.3 0.5-0.9 0.6-1.4 0.4L201.9 107.8c-0.5-0.3-0.6-0.9-0.4-1.4l4.5-7.8c0.3-0.5 0.9-0.6 1.4-0.4l44.7 25.9c0.5 0.3 0.6 0.9 0.4 1.4L247.9 133.3z" class="a"/><path d="M247.1 134.3c-0.3 0-0.5-0.1-0.7-0.2l-44.7-25.9c-0.3-0.2-0.6-0.5-0.7-0.9 -0.1-0.4 0-0.8 0.2-1.1l4.5-7.8c0.4-0.7 1.3-1 2.1-0.5l44.7 25.9c0.3 0.2 0.6 0.5 0.7 0.9 0.1 0.4 0.1 0.8-0.2 1.1l-4.5 7.8C248.1 134.1 247.6 134.3 247.1 134.3M206.9 98.6c-0.2 0-0.3 0.1-0.4 0.3l-4.5 7.8c-0.1 0.1-0.1 0.2 0 0.4 0 0.1 0.1 0.2 0.2 0.3l44.7 25.9c0.2 0.1 0.5 0.1 0.7-0.2l4.5-7.8c0.1-0.1 0.1-0.2 0-0.4 0-0.1-0.1-0.2-0.2-0.3l-44.7-25.9C207.1 98.6 207 98.6 206.9 98.6" class="a"/><path d="M300.5 108.2c-0.3 0.5-0.9 0.6-1.4 0.4L259.6 85.6c-0.5-0.3-0.6-0.9-0.4-1.4l1.5-2.6c0.3-0.5 0.9-0.6 1.4-0.4l39.5 22.9c0.5 0.3 0.6 0.9 0.4 1.4L300.5 108.2z" class="a"/><path d="M299.6 109.1c-0.3 0-0.5-0.1-0.7-0.2L259.4 86c-0.3-0.2-0.6-0.5-0.7-0.9 -0.1-0.4 0-0.8 0.2-1.1l1.5-2.6c0.4-0.7 1.3-1 2.1-0.5l39.5 22.9c0.3 0.2 0.6 0.5 0.7 0.9 0.1 0.4 0.1 0.8-0.2 1.1l-1.5 2.6C300.6 108.9 300.1 109.1 299.6 109.1M261.6 81.7c-0.2 0-0.3 0.1-0.4 0.2l-1.5 2.6c-0.1 0.1-0.1 0.2 0 0.4 0 0.1 0.1 0.2 0.2 0.3l39.5 22.9c0.2 0.1 0.5 0.1 0.7-0.2l1.5-2.6c0.1-0.1 0.1-0.2 0.1-0.4 0-0.1-0.1-0.2-0.2-0.3l-39.5-22.9C261.8 81.7 261.7 81.7 261.6 81.7" class="a"/><path d="M301.6 112.3c-0.3 0.5-0.9 0.6-1.4 0.4l-44.7-25.9c-0.5-0.3-0.6-0.9-0.4-1.4l4.5-7.8c0.3-0.5 0.9-0.6 1.4-0.4l44.7 25.9c0.5 0.3 0.6 0.9 0.4 1.4L301.6 112.3z" class="a"/><path d="M300.7 113.2c-0.3 0-0.5-0.1-0.7-0.2l-44.7-25.9c-0.3-0.2-0.6-0.5-0.7-0.9 -0.1-0.4 0-0.8 0.2-1.1l4.5-7.8c0.4-0.7 1.3-1 2.1-0.5l44.7 25.9c0.3 0.2 0.6 0.5 0.7 0.9 0.1 0.4 0.1 0.8-0.2 1.1l-4.5 7.8C301.7 113 301.2 113.2 300.7 113.2M260.5 77.5c-0.2 0-0.3 0.1-0.4 0.3l-4.5 7.8c-0.1 0.1-0.1 0.2 0 0.4 0 0.1 0.1 0.2 0.2 0.3l44.7 25.9c0.2 0.1 0.5 0.1 0.7-0.2l4.5-7.8c0.1-0.1 0.1-0.2 0-0.4 0-0.1-0.1-0.2-0.2-0.3l-44.7-25.9C260.7 77.6 260.6 77.5 260.5 77.5" class="a"/><path d="M294 104.5c0-0.5 0.4-1.2 0.9-1.5l45.3-26.3c0.5-0.3 1.3-0.3 1.7 0l45.2 26.1c0.5 0.3 0.9 1 0.9 1.5l-0.1 52.4c0 0.6-0.4 1.2-0.9 1.5l-45.3 26.3c-0.5 0.3-1.3 0.3-1.7 0l-45.2-26.1c-0.5-0.3-0.9-0.9-0.9-1.5L294 104.5zM341.9 83.8c-0.5-0.3-1.3-0.3-1.7 0l-39.2 22.8c-0.5 0.3-0.9 1-0.9 1.5l-0.1 45.3c0 0.6 0.4 1.2 0.9 1.5l39.1 22.6c0.5 0.3 1.3 0.3 1.7 0l39.2-22.8c0.5-0.3 0.9-1 0.9-1.5l0.1-45.3c0-0.5-0.4-1.2-0.9-1.5L341.9 83.8z" class="a"/><path d="M340.8 185.2c-0.4 0-0.8-0.1-1.1-0.3l-45.2-26.1c-0.6-0.4-1.1-1.2-1.1-1.9l0.1-52.4c0-0.7 0.5-1.6 1.1-1.9l45.3-26.3c0.6-0.4 1.6-0.4 2.2 0l45.2 26.1c0.6 0.4 1.1 1.2 1.1 1.9l-0.1 52.4c0 0.7-0.5 1.6-1.1 1.9l-45.3 26.3C341.6 185.1 341.2 185.2 340.8 185.2M341 77.1c-0.2 0-0.5 0-0.6 0.1l-45.3 26.3c-0.3 0.2-0.6 0.7-0.6 1.1l-0.1 52.4c0 0.4 0.3 0.9 0.6 1.1l45.2 26.1c0.3 0.2 0.9 0.2 1.2 0l45.3-26.3c0.3-0.2 0.6-0.7 0.6-1.1l0.1-52.4c0-0.4-0.3-0.9-0.6-1.1l-45.2-26.1C341.4 77.1 341.2 77.1 341 77.1M340.8 178.2c-0.4 0-0.8-0.1-1.1-0.3l-39.1-22.6c-0.6-0.4-1.1-1.2-1.1-1.9l0.1-45.3c0-0.7 0.5-1.6 1.1-1.9l39.2-22.8c0.6-0.4 1.6-0.4 2.2 0l39.1 22.6c0.6 0.4 1.1 1.2 1.1 1.9l-0.1 45.3c0 0.7-0.5 1.6-1.1 1.9l-39.2 22.8C341.6 178.1 341.2 178.2 340.8 178.2M341 84.1c-0.2 0-0.5 0-0.6 0.1l-39.2 22.8c-0.3 0.2-0.6 0.7-0.6 1.1l-0.1 45.3c0 0.4 0.3 0.9 0.6 1.1l39.1 22.6c0.3 0.2 0.9 0.2 1.2 0l39.2-22.8c0.3-0.2 0.6-0.7 0.6-1.1l0.1-45.3c0-0.4-0.3-0.9-0.6-1.1l-39.1-22.6C341.5 84.1 341.2 84.1 341 84.1" class="a"/><path d="M341.7 188c-0.5 0.3-1.3 0.3-1.7 0l-48.2-27.8c-0.5-0.3-0.9-0.9-0.9-1.5l0.1-55.8c0-0.5 0.4-1.2 0.9-1.5l48.3-28c0.5-0.3 1.3-0.3 1.7 0l48.2 27.8c0.5 0.3 0.9 1 0.9 1.5l-0.1 55.8c0 0.6-0.4 1.2-0.9 1.5L341.7 188zM296.9 155.2c0 0.6 0.4 1.2 0.9 1.5l42.2 24.4c0.5 0.3 1.3 0.3 1.7 0l42.3-24.5c0.5-0.3 0.9-1 0.9-1.5l0.1-48.9c0-0.5-0.4-1.2-0.9-1.5l-42.2-24.4c-0.5-0.3-1.3-0.3-1.7 0l-42.3 24.5c-0.5 0.3-0.9 1-0.9 1.5L296.9 155.2zM341.7 180.9c-0.5 0.3-1.3 0.3-1.7 0l-42.1-24.3c-0.5-0.3-0.9-0.9-0.9-1.5l0.1-48.8c0-0.5 0.4-1.2 0.9-1.5l42.2-24.5c0.5-0.3 1.3-0.3 1.7 0l42.1 24.3c0.5 0.3 0.9 1 0.9 1.5l-0.1 48.8c0 0.6-0.4 1.2-0.9 1.5L341.7 180.9zM303 151.7c0 0.6 0.4 1.2 0.9 1.5l36.1 20.8c0.5 0.3 1.3 0.3 1.7 0l36.2-21c0.5-0.3 0.9-1 0.9-1.5l0.1-41.9c0-0.5-0.4-1.2-0.9-1.5l-36.1-20.8c-0.5-0.3-1.3-0.3-1.7 0L303.9 108.3c-0.5 0.3-0.9 1-0.9 1.5L303 151.7z" class="a"/><path d="M340.8 188.7c-0.4 0-0.8-0.1-1.1-0.3l-48.2-27.8c-0.6-0.4-1.1-1.2-1.1-1.9l0.1-55.8c0-0.7 0.5-1.6 1.1-1.9l48.3-28c0.6-0.4 1.6-0.4 2.2 0l48.2 27.8c0.6 0.4 1.1 1.2 1.1 1.9l-0.1 55.8c0 0.7-0.5 1.6-1.1 1.9l-48.3 28C341.6 188.6 341.2 188.7 340.8 188.7M341 73.6c-0.2 0-0.5 0-0.6 0.1l-48.3 28c-0.3 0.2-0.6 0.7-0.6 1.1l-0.1 55.8c0 0.4 0.3 0.9 0.6 1.1l48.2 27.8c0.3 0.2 0.9 0.2 1.2 0l48.3-28c0.3-0.2 0.6-0.7 0.6-1.1l0.1-55.8c0-0.4-0.3-0.9-0.6-1.1l-48.2-27.8C341.4 73.6 341.2 73.6 341 73.6M340.8 181.7c-0.4 0-0.8-0.1-1.1-0.3l-42.2-24.4c-0.6-0.4-1.1-1.2-1.1-1.9l0.1-48.9c0-0.7 0.5-1.6 1.1-1.9l42.3-24.5c0.6-0.4 1.6-0.4 2.2 0l42.2 24.4c0.6 0.4 1.1 1.2 1.1 1.9l-0.1 48.9c0 0.7-0.5 1.6-1.1 1.9l-42.3 24.5C341.6 181.7 341.2 181.7 340.8 181.7M341 80.6c-0.2 0-0.5 0-0.6 0.1l-42.2 24.5c-0.3 0.2-0.6 0.7-0.6 1.1l-0.1 48.8c0 0.4 0.3 0.9 0.6 1.1l42.1 24.3c0.3 0.2 0.9 0.2 1.2 0l42.2-24.5c0.3-0.2 0.6-0.7 0.6-1.1l0.1-48.8c0-0.4-0.3-0.9-0.6-1.1l-42.1-24.3C341.4 80.7 341.2 80.6 341 80.6M340.8 174.7c-0.4 0-0.8-0.1-1.1-0.3l-36.1-20.8c-0.6-0.4-1.1-1.2-1.1-1.9l0.1-41.9c0-0.7 0.5-1.6 1.1-1.9l36.2-21c0.6-0.4 1.6-0.4 2.2 0l36.1 20.8c0.6 0.4 1.1 1.2 1.1 1.9l-0.1 41.9c0 0.7-0.5 1.6-1.1 1.9L341.9 174.4C341.6 174.6 341.2 174.7 340.8 174.7M303.5 151.7c0 0.4 0.3 0.9 0.6 1.1l36.1 20.8c0.3 0.2 0.9 0.2 1.2 0l36.2-21c0.3-0.2 0.6-0.7 0.6-1.1l0.1-41.9c0-0.4-0.3-0.9-0.6-1.1l-36.1-20.8c-0.3-0.2-0.9-0.2-1.2 0l-36.2 21c-0.3 0.2-0.6 0.7-0.6 1.1L303.5 151.7z" class="a"/><path d="M424.4 180.6c-0.3 0.5-0.9 0.6-1.4 0.4l-39.5-22.8c-0.5-0.3-0.6-0.9-0.4-1.4l1.5-2.6c0.3-0.5 0.9-0.6 1.4-0.4l39.5 22.8c0.5 0.3 0.6 0.9 0.4 1.4L424.4 180.6z" class="a"/><path d="M423.5 181.6c-0.3 0-0.5-0.1-0.7-0.2l-39.5-22.8c-0.7-0.4-1-1.3-0.5-2l1.5-2.6c0.2-0.3 0.5-0.6 0.9-0.7 0.4-0.1 0.8-0.1 1.1 0.1l39.5 22.8c0.3 0.2 0.6 0.5 0.7 0.9 0.1 0.4 0.1 0.8-0.1 1.1l-1.5 2.6C424.6 181.3 424.1 181.6 423.5 181.6M385.5 154.2c0 0-0.1 0-0.1 0 -0.1 0-0.2 0.1-0.3 0.2l-1.5 2.6c-0.1 0.2-0.1 0.5 0.2 0.7l39.5 22.8c0.2 0.1 0.5 0.1 0.7-0.2l1.5-2.6c0.1-0.1 0.1-0.2 0-0.4 0-0.1-0.1-0.2-0.2-0.3l-39.5-22.8C385.7 154.2 385.6 154.2 385.5 154.2" class="a"/><path d="M425.5 184.7c-0.3 0.5-0.9 0.6-1.4 0.4l-44.7-25.8c-0.5-0.3-0.6-0.9-0.4-1.4l4.5-7.8c0.3-0.5 0.9-0.6 1.4-0.4l44.7 25.8c0.5 0.3 0.6 0.9 0.4 1.4L425.5 184.7z" class="a"/><path d="M424.6 185.7c-0.3 0-0.5-0.1-0.7-0.2l-44.7-25.8c-0.3-0.2-0.6-0.5-0.7-0.9 -0.1-0.4-0.1-0.8 0.1-1.1l4.5-7.8c0.4-0.7 1.3-1 2-0.5l44.7 25.8c0.3 0.2 0.6 0.5 0.7 0.9 0.1 0.4 0.1 0.8-0.1 1.1l-4.5 7.8C425.7 185.4 425.2 185.7 424.6 185.7M384.4 150.1c-0.2 0-0.3 0.1-0.4 0.3l-4.5 7.8c-0.1 0.1-0.1 0.2 0 0.4 0 0.1 0.1 0.2 0.2 0.3l44.7 25.8c0.2 0.1 0.5 0.1 0.7-0.2l4.5-7.8c0.1-0.1 0.1-0.2 0-0.4 0-0.1-0.1-0.2-0.2-0.3l-44.7-25.8C384.6 150.1 384.5 150.1 384.4 150.1" class="a"/><path d="M339.6 80.1c-0.3 0.5-0.9 0.6-1.4 0.4l-39.5-22.8c-0.5-0.3-0.6-0.9-0.4-1.4l1.5-2.6c0.3-0.5 0.9-0.6 1.4-0.4l39.5 22.8c0.5 0.3 0.6 0.9 0.4 1.4L339.6 80.1z" class="a"/><path d="M338.7 81.1c-0.3 0-0.5-0.1-0.7-0.2l-39.5-22.8c-0.7-0.4-1-1.3-0.6-2l1.5-2.6c0.2-0.3 0.5-0.6 0.9-0.7 0.4-0.1 0.8-0.1 1.1 0.1l39.5 22.8c0.3 0.2 0.6 0.5 0.7 0.9 0.1 0.4 0.1 0.8-0.1 1.1l-1.5 2.6C339.8 80.9 339.3 81.1 338.7 81.1M300.7 53.7c0 0-0.1 0-0.1 0 -0.1 0-0.2 0.1-0.3 0.2l-1.5 2.6c-0.1 0.2-0.1 0.5 0.2 0.7l39.5 22.8c0.2 0.1 0.5 0.1 0.7-0.2l1.5-2.6c0.1-0.1 0.1-0.2 0-0.4 0-0.1-0.1-0.2-0.2-0.3l-39.5-22.8C300.9 53.7 300.8 53.7 300.7 53.7" class="a"/><path d="M340.7 84.2c-0.3 0.5-0.9 0.6-1.4 0.4l-44.7-25.8c-0.5-0.3-0.6-0.9-0.4-1.4l4.5-7.8c0.3-0.5 0.9-0.6 1.4-0.4l44.7 25.8c0.5 0.3 0.6 0.9 0.4 1.4L340.7 84.2z" class="a"/><path d="M339.8 85.2c-0.3 0-0.5-0.1-0.7-0.2l-44.7-25.8c-0.3-0.2-0.6-0.5-0.7-0.9 -0.1-0.4-0.1-0.8 0.1-1.1l4.5-7.8c0.4-0.7 1.3-1 2.1-0.5l44.7 25.8c0.3 0.2 0.6 0.5 0.7 0.9 0.1 0.4 0.1 0.8-0.1 1.1l-4.5 7.8C340.9 85 340.4 85.2 339.8 85.2M299.6 49.6c-0.2 0-0.3 0.1-0.4 0.3l-4.5 7.8c-0.1 0.1-0.1 0.2 0 0.4s0.1 0.2 0.2 0.3l44.7 25.8c0.2 0.1 0.5 0.1 0.7-0.2l4.5-7.8c0.1-0.1 0.1-0.2 0.1-0.4 0-0.1-0.1-0.2-0.2-0.3l-44.7-25.8C299.8 49.6 299.7 49.6 299.6 49.6" class="a"/><path d="M298.8 192.2c0 0.6-0.5 1-1 1l-3 0c-0.5 0-1-0.5-1-1l0.1-45.6c0-0.5 0.5-1 1-1l3 0c0.6 0 1 0.5 1 1L298.8 192.2z" class="a"/><path d="M297.8 193.7h0l-3 0c-0.8 0-1.5-0.7-1.5-1.5l0.1-45.6c0-0.4 0.2-0.8 0.4-1.1 0.3-0.3 0.7-0.4 1.1-0.4h0l3 0c0.8 0 1.5 0.7 1.5 1.5l-0.1 45.6c0 0.4-0.2 0.8-0.4 1.1C298.6 193.6 298.2 193.7 297.8 193.7M294.9 146.1c-0.1 0-0.3 0.1-0.4 0.1 -0.1 0.1-0.1 0.2-0.1 0.4l-0.1 45.6c0 0.1 0.1 0.3 0.1 0.4 0.1 0.1 0.2 0.1 0.4 0.1l3 0c0.2 0 0.3-0.1 0.4-0.1 0.1-0.1 0.1-0.2 0.1-0.4l0.1-45.6c0-0.3-0.2-0.5-0.5-0.5L294.9 146.1 294.9 146.1z" class="a"/><path d="M301.8 195.2c0 0.6-0.5 1-1 1l-9 0c-0.5 0-1-0.5-1-1l0.1-51.6c0-0.5 0.5-1 1-1l9 0c0.6 0 1 0.5 1 1L301.8 195.2z" class="a"/><path d="M300.8 196.7h0l-9 0c-0.8 0-1.5-0.7-1.5-1.5l0.1-51.6c0-0.4 0.2-0.8 0.4-1.1 0.3-0.3 0.6-0.4 1.1-0.4l9 0c0.8 0 1.5 0.7 1.5 1.5l-0.1 51.6c0 0.4-0.2 0.8-0.4 1.1C301.6 196.6 301.2 196.7 300.8 196.7M291.9 143.1c-0.1 0-0.3 0.1-0.4 0.1 -0.1 0.1-0.1 0.2-0.1 0.4l-0.1 51.6c0 0.3 0.2 0.5 0.5 0.5l9 0h0c0.1 0 0.3-0.1 0.4-0.1 0.1-0.1 0.1-0.2 0.1-0.4l0.1-51.6c0-0.3-0.2-0.5-0.5-0.5L291.9 143.1 291.9 143.1z" class="a"/><path d="M343.9 228.1c0 0.6-0.5 1-1 1l-3 0c-0.5 0-1-0.5-1-1l0.1-45.6c0-0.5 0.5-1 1-1l3 0c0.5 0 1 0.5 1 1L343.9 228.1z" class="a"/><path d="M342.9 229.6h0l-3 0c-0.4 0-0.8-0.2-1.1-0.4 -0.3-0.3-0.4-0.7-0.4-1.1l0.1-45.6c0-0.4 0.2-0.8 0.4-1.1 0.3-0.3 0.7-0.4 1.1-0.4h0l3 0c0.8 0 1.5 0.7 1.5 1.5l-0.1 45.6c0 0.4-0.2 0.8-0.4 1.1C343.7 229.5 343.3 229.6 342.9 229.6M340 182c-0.1 0-0.3 0.1-0.4 0.1 -0.1 0.1-0.1 0.2-0.1 0.4l-0.1 45.6c0 0.1 0.1 0.3 0.1 0.4 0.1 0.1 0.2 0.1 0.4 0.1l3 0h0c0.1 0 0.3-0.1 0.4-0.1 0.1-0.1 0.1-0.2 0.1-0.4l0.1-45.6c0-0.3-0.2-0.5-0.5-0.5L340 182 340 182z" class="a"/><path d="M346.9 231.1c0 0.6-0.5 1-1 1l-9 0c-0.5 0-1-0.5-1-1l0.1-51.6c0-0.5 0.5-1 1-1l9 0c0.6 0 1 0.5 1 1L346.9 231.1z" class="a"/><path d="M345.9 232.6h0l-9 0c-0.8 0-1.5-0.7-1.5-1.5l0.1-51.6c0-0.4 0.2-0.8 0.4-1.1 0.3-0.3 0.7-0.4 1.1-0.4h0l9 0c0.8 0 1.5 0.7 1.5 1.5l-0.1 51.6c0 0.4-0.2 0.8-0.4 1.1C346.7 232.5 346.3 232.6 345.9 232.6M337 179c-0.1 0-0.3 0.1-0.4 0.1 -0.1 0.1-0.1 0.2-0.1 0.4l-0.1 51.6c0 0.3 0.2 0.5 0.5 0.5l9 0c0.2 0 0.3-0.1 0.4-0.1 0.1-0.1 0.1-0.2 0.1-0.4l0.1-51.6c0-0.3-0.2-0.5-0.5-0.5L337 179 337 179z" class="a"/><path d="M339.9 222c0.5-0.3 1.3-0.3 1.7 0l45.4 26.1c0.5 0.3 0.9 0.9 0.9 1.5v52.2c0 0.6-0.4 1.2-0.9 1.5l-45.4 26.1c-0.5 0.3-1.3 0.3-1.7 0l-45.4-26.1c-0.5-0.3-0.9-0.9-0.9-1.5v-52.2c0-0.5 0.4-1.2 0.9-1.5L339.9 222zM381.8 253.1c0-0.5-0.4-1.2-0.9-1.5l-39.3-22.6c-0.5-0.3-1.3-0.3-1.7 0l-39.3 22.6c-0.5 0.3-0.9 0.9-0.9 1.5v45.2c0 0.6 0.4 1.2 0.9 1.5l39.3 22.6c0.5 0.3 1.3 0.3 1.7 0l39.3-22.6c0.5-0.3 0.9-0.9 0.9-1.5V253.1z" class="a"/><path d="M340.8 330.1c-0.4 0-0.8-0.1-1.1-0.3l-45.4-26.1c-0.6-0.4-1.1-1.2-1.1-1.9v-52.2c0-0.7 0.5-1.6 1.1-1.9l45.4-26.1c0.6-0.4 1.6-0.4 2.2 0l45.4 26.1c0.6 0.4 1.1 1.2 1.1 1.9v52.2c0 0.7-0.5 1.6-1.1 1.9l-45.4 26.1C341.6 330 341.2 330.1 340.8 330.1M340.2 222.4l-45.4 26.1c-0.3 0.2-0.6 0.7-0.6 1.1v52.2c0 0.4 0.3 0.9 0.6 1.1l45.4 26.1c0.3 0.2 0.9 0.2 1.2 0l45.4-26.1c0.3-0.2 0.6-0.7 0.6-1.1v-52.2c0-0.4-0.3-0.9-0.6-1.1l-45.4-26.1C341.1 222.2 340.5 222.2 340.2 222.4M340.8 323c-0.4 0-0.8-0.1-1.1-0.3l-39.3-22.6c-0.6-0.4-1.1-1.2-1.1-1.9v-45.2c0-0.7 0.5-1.6 1.1-1.9l39.3-22.6c0.6-0.4 1.6-0.4 2.2 0l39.3 22.6c0.6 0.4 1.1 1.2 1.1 1.9v45.2c0 0.7-0.5 1.6-1.1 1.9l-39.3 22.6C341.6 323 341.2 323 340.8 323M340.8 229.3c-0.2 0-0.5 0-0.6 0.1l-39.3 22.6c-0.3 0.2-0.6 0.7-0.6 1.1v45.2c0 0.4 0.3 0.9 0.6 1.1l39.3 22.6c0.3 0.2 0.9 0.2 1.2 0l39.3-22.6c0.3-0.2 0.6-0.7 0.6-1.1v-45.2c0-0.4-0.3-0.9-0.6-1.1l-39.3-22.6C341.2 229.3 341 229.3 340.8 229.3" class="a"/><path d="M341.6 332.8c-0.5 0.3-1.3 0.3-1.7 0l-48.4-27.8c-0.5-0.3-0.9-0.9-0.9-1.5v-55.7c0-0.5 0.4-1.2 0.9-1.5l48.4-27.8c0.5-0.3 1.3-0.3 1.7 0l48.4 27.8c0.5 0.3 0.9 0.9 0.9 1.5v55.7c0 0.6-0.4 1.2-0.9 1.5L341.6 332.8zM296.6 300c0 0.6 0.4 1.2 0.9 1.5l42.4 24.4c0.5 0.3 1.3 0.3 1.7 0l42.4-24.4c0.5-0.3 0.9-0.9 0.9-1.5v-48.7c0-0.5-0.4-1.2-0.9-1.5l-42.4-24.4c-0.5-0.3-1.3-0.3-1.7 0l-42.4 24.4c-0.5 0.3-0.9 0.9-0.9 1.5V300zM341.6 325.8c-0.5 0.3-1.3 0.3-1.7 0l-42.3-24.3c-0.5-0.3-0.9-0.9-0.9-1.5V251.4c0-0.5 0.4-1.2 0.9-1.5l42.3-24.3c0.5-0.3 1.3-0.3 1.7 0l42.3 24.3c0.5 0.3 0.9 0.9 0.9 1.5v48.6c0 0.6-0.4 1.2-0.9 1.5L341.6 325.8zM302.7 296.5c0 0.6 0.4 1.2 0.9 1.5l36.3 20.9c0.5 0.3 1.3 0.3 1.7 0l36.3-20.9c0.5-0.3 0.9-0.9 0.9-1.5v-41.7c0-0.5-0.4-1.2-0.9-1.5l-36.3-20.9c-0.5-0.3-1.3-0.3-1.7 0l-36.3 20.9c-0.5 0.3-0.9 0.9-0.9 1.5V296.5z" class="a"/><path d="M340.8 333.5c-0.4 0-0.8-0.1-1.1-0.3l-48.4-27.8c-0.6-0.4-1.1-1.2-1.1-1.9v-55.7c0-0.7 0.5-1.6 1.1-1.9l48.4-27.8c0.6-0.4 1.6-0.4 2.2 0l48.4 27.8c0.6 0.4 1.1 1.2 1.1 1.9v55.7c0 0.7-0.5 1.6-1.1 1.9l-48.4 27.8C341.6 333.4 341.2 333.5 340.8 333.5M340.8 218.8c-0.2 0-0.5 0-0.6 0.1l-48.4 27.8c-0.3 0.2-0.6 0.7-0.6 1.1v55.7c0 0.4 0.3 0.9 0.6 1.1l48.4 27.8c0.3 0.2 0.9 0.2 1.2 0l48.4-27.8c0.3-0.2 0.6-0.7 0.6-1.1v-55.7c0-0.4-0.3-0.9-0.6-1.1l-48.4-27.8C341.2 218.9 341 218.8 340.8 218.8M340.8 326.6c-0.4 0-0.8-0.1-1.1-0.3l-42.4-24.4c-0.6-0.4-1.1-1.2-1.1-1.9v-48.7c0-0.7 0.5-1.6 1.1-1.9l42.4-24.4c0.6-0.4 1.6-0.4 2.2 0l42.4 24.4c0.6 0.4 1.1 1.2 1.1 1.9v48.7c0 0.7-0.5 1.6-1.1 1.9l-42.4 24.4C341.6 326.5 341.2 326.6 340.8 326.6M340.8 225.8c-0.2 0-0.5 0-0.6 0.1l-42.3 24.3c-0.3 0.2-0.6 0.7-0.6 1.1v48.6c0 0.4 0.3 0.9 0.6 1.1l42.3 24.3c0.3 0.2 0.9 0.2 1.2 0l42.3-24.3c0.3-0.2 0.6-0.7 0.6-1.1v-48.6c0-0.4-0.3-0.9-0.6-1.1l-42.3-24.3C341.2 225.9 341 225.8 340.8 225.8M340.8 319.6c-0.4 0-0.8-0.1-1.1-0.3l-36.3-20.9c-0.6-0.4-1.1-1.2-1.1-1.9v-41.7c0-0.7 0.5-1.6 1.1-1.9l36.3-20.9c0.6-0.4 1.6-0.4 2.2 0l36.3 20.9c0.6 0.4 1.1 1.2 1.1 1.9v41.7c0 0.7-0.5 1.6-1.1 1.9l-36.3 20.9C341.6 319.5 341.2 319.6 340.8 319.6M340.8 232.7c-0.2 0-0.5 0-0.6 0.1l-36.3 20.9c-0.3 0.2-0.6 0.7-0.6 1.1v41.7c0 0.4 0.3 0.9 0.6 1.1l36.3 20.9c0.3 0.2 0.9 0.2 1.2 0l36.3-20.9c0.3-0.2 0.6-0.7 0.6-1.1v-41.7c0-0.4-0.3-0.9-0.6-1.1l-36.3-20.9C341.2 232.8 341 232.7 340.8 232.7" class="a"/><path d="M343.3 372c0 0.6-0.4 1-1 1h-3c-0.5 0-1-0.4-1-1v-45.6c0-0.5 0.5-1 1-1h3c0.6 0 1 0.5 1 1V372z" class="a"/><path d="M342.3 373.5h-3c-0.8 0-1.5-0.7-1.5-1.5v-45.6c0-0.8 0.7-1.5 1.5-1.5h3c0.8 0 1.5 0.7 1.5 1.5v45.6C343.8 372.8 343.1 373.5 342.3 373.5M339.3 325.8c-0.3 0-0.5 0.2-0.5 0.5v45.6c0 0.3 0.2 0.5 0.5 0.5h3c0.3 0 0.5-0.2 0.5-0.5v-45.6c0-0.3-0.2-0.5-0.5-0.5H339.3z" class="a"/><path d="M346.3 375c0 0.6-0.4 1-1 1h-9c-0.5 0-1-0.4-1-1v-51.6c0-0.5 0.5-1 1-1h9c0.6 0 1 0.5 1 1V375z" class="a"/><path d="M345.3 376.5h-9c-0.8 0-1.5-0.7-1.5-1.5v-51.6c0-0.8 0.7-1.5 1.5-1.5h9c0.8 0 1.5 0.7 1.5 1.5v51.6C346.8 375.8 346.1 376.5 345.3 376.5M336.3 322.8c-0.3 0-0.5 0.2-0.5 0.5v51.6c0 0.3 0.2 0.5 0.5 0.5h9c0.3 0 0.5-0.2 0.5-0.5v-51.6c0-0.3-0.2-0.5-0.5-0.5H336.3z" class="a"/><path d="M387.9 248.3c0 0.6-0.4 1-1 1h-3c-0.5 0-1-0.4-1-1v-45.6c0-0.5 0.5-1 1-1h3c0.6 0 1 0.5 1 1V248.3z" class="a"/><path d="M386.9 249.8h-3c-0.8 0-1.5-0.7-1.5-1.5v-45.6c0-0.8 0.7-1.5 1.5-1.5h3c0.8 0 1.5 0.7 1.5 1.5v45.6C388.4 249.1 387.7 249.8 386.9 249.8M383.9 202.2c-0.3 0-0.5 0.2-0.5 0.5v45.6c0 0.3 0.2 0.5 0.5 0.5h3c0.3 0 0.5-0.2 0.5-0.5v-45.6c0-0.3-0.2-0.5-0.5-0.5H383.9z" class="a"/><path d="M390.9 251.3c0 0.6-0.4 1-1 1h-9c-0.5 0-1-0.4-1-1v-51.6c0-0.5 0.5-1 1-1h9c0.6 0 1 0.5 1 1V251.3z" class="a"/><path d="M389.9 252.8h-9c-0.8 0-1.5-0.7-1.5-1.5v-51.6c0-0.8 0.7-1.5 1.5-1.5h9c0.8 0 1.5 0.7 1.5 1.5v51.6C391.4 252.1 390.7 252.8 389.9 252.8M380.9 199.2c-0.3 0-0.5 0.2-0.5 0.5v51.6c0 0.3 0.2 0.5 0.5 0.5h9c0.3 0 0.5-0.2 0.5-0.5v-51.6c0-0.3-0.2-0.5-0.5-0.5H380.9z" class="a"/><path d="M266.4 270c-0.5 0.3-1.1 0.1-1.4-0.4l-1.5-2.6c-0.3-0.5-0.1-1.1 0.4-1.4l39.6-22.7c0.5-0.3 1.1-0.1 1.4 0.4l1.5 2.6c0.3 0.5 0.1 1.1-0.4 1.4L266.4 270z" class="a"/><path d="M265.9 270.6c-0.5 0-1-0.3-1.3-0.8l-1.5-2.6c-0.2-0.3-0.3-0.7-0.1-1.1 0.1-0.4 0.4-0.7 0.7-0.9l39.6-22.7c0.7-0.4 1.6-0.2 2 0.6l1.5 2.6c0.2 0.3 0.3 0.8 0.1 1.1 -0.1 0.4-0.4 0.7-0.7 0.9l-39.6 22.7C266.4 270.6 266.2 270.6 265.9 270.6M304 243.3c-0.1 0-0.2 0-0.2 0.1l-39.6 22.7c-0.1 0.1-0.2 0.2-0.2 0.3 0 0.1 0 0.3 0 0.4l1.5 2.6c0.1 0.2 0.4 0.3 0.7 0.2l39.6-22.7c0.1-0.1 0.2-0.2 0.2-0.3 0-0.1 0-0.3 0-0.4l-1.5-2.6C304.3 243.4 304.2 243.3 304 243.3" class="a"/><path d="M265.3 274.1c-0.5 0.3-1.1 0.1-1.4-0.4l-4.5-7.8c-0.3-0.5-0.1-1.1 0.4-1.4l44.8-25.7c0.5-0.3 1.1-0.1 1.4 0.4l4.5 7.8c0.3 0.5 0.1 1.1-0.4 1.4L265.3 274.1z" class="a"/><path d="M264.8 274.7c-0.5 0-1-0.3-1.3-0.8l-4.5-7.8c-0.2-0.3-0.3-0.8-0.1-1.1 0.1-0.4 0.4-0.7 0.7-0.9l44.8-25.7c0.7-0.4 1.6-0.2 2 0.6l4.5 7.8c0.2 0.3 0.3 0.8 0.1 1.1 -0.1 0.4-0.4 0.7-0.7 0.9l-44.8 25.7C265.3 274.7 265.1 274.7 264.8 274.7M305.1 239.2c-0.1 0-0.2 0-0.2 0.1l-44.8 25.7c-0.1 0.1-0.2 0.2-0.2 0.3 0 0.1 0 0.3 0 0.4l4.5 7.8c0.1 0.2 0.4 0.3 0.7 0.2l44.8-25.7c0.1-0.1 0.2-0.2 0.2-0.3 0-0.1 0-0.3 0-0.4l-4.5-7.8C305.4 239.3 305.3 239.2 305.1 239.2" class="a"/><path d="M257.8 327c-0.5 0.3-1.1 0.1-1.4-0.4l-1.5-2.6c-0.3-0.5-0.1-1.1 0.4-1.4l39.6-22.7c0.5-0.3 1.1-0.1 1.4 0.4l1.5 2.6c0.3 0.5 0.1 1.1-0.4 1.4L257.8 327z" class="a"/><path d="M257.3 327.6c-0.5 0-1-0.3-1.3-0.8l-1.5-2.6c-0.2-0.3-0.3-0.7-0.1-1.1 0.1-0.4 0.4-0.7 0.7-0.9l39.6-22.7c0.7-0.4 1.6-0.2 2 0.6l1.5 2.6c0.2 0.3 0.3 0.8 0.1 1.1 -0.1 0.4-0.4 0.7-0.7 0.9l-39.6 22.7C257.9 327.6 257.6 327.6 257.3 327.6M295.4 300.3c-0.1 0-0.2 0-0.2 0.1L255.6 323.1c-0.1 0.1-0.2 0.2-0.2 0.3 0 0.1 0 0.3 0 0.4l1.5 2.6c0.1 0.2 0.4 0.3 0.7 0.2l39.6-22.7c0.1-0.1 0.2-0.2 0.2-0.3 0-0.1 0-0.3 0-0.4l-1.5-2.6C295.8 300.4 295.6 300.3 295.4 300.3" class="a"/><path d="M256.7 331.1c-0.5 0.3-1.1 0.1-1.4-0.4l-4.5-7.8c-0.3-0.5-0.1-1.1 0.4-1.4l44.8-25.7c0.5-0.3 1.1-0.1 1.4 0.4l4.5 7.8c0.3 0.5 0.1 1.1-0.4 1.4L256.7 331.1z" class="a"/><path d="M256.2 331.7c-0.5 0-1-0.3-1.3-0.8l-4.5-7.8c-0.2-0.3-0.3-0.8-0.1-1.1 0.1-0.4 0.4-0.7 0.7-0.9l44.8-25.7c0.7-0.4 1.6-0.2 2 0.6l4.5 7.8c0.2 0.3 0.3 0.8 0.1 1.1 -0.1 0.4-0.4 0.7-0.7 0.9l-44.8 25.7C256.8 331.7 256.5 331.7 256.2 331.7M296.5 296.2c-0.1 0-0.2 0-0.2 0.1l-44.8 25.7c-0.1 0.1-0.2 0.2-0.2 0.3 0 0.1 0 0.3 0 0.4l4.5 7.8c0.1 0.2 0.4 0.3 0.7 0.2l44.8-25.7c0.1-0.1 0.2-0.2 0.2-0.3 0-0.1 0-0.3 0-0.4l-4.5-7.8C296.9 296.3 296.7 296.2 296.5 296.2" class="a"/><path d="M261.2 320.4c0.5 0.3 0.9 1 0.9 1.5l0.1 52.4c0 0.6-0.4 1.2-0.9 1.5l-45.2 26.1c-0.5 0.3-1.3 0.3-1.7 0l-45.3-26.3c-0.5-0.3-0.9-1-0.9-1.5l-0.1-52.4c0-0.5 0.4-1.2 0.9-1.5l45.2-26.1c0.5-0.3 1.3-0.3 1.7 0L261.2 320.4zM255.3 372.2c0.5-0.3 0.9-0.9 0.9-1.5l-0.1-45.3c0-0.5-0.4-1.2-0.9-1.5l-39.2-22.8c-0.5-0.3-1.3-0.3-1.7 0l-39.1 22.6c-0.5 0.3-0.9 0.9-0.9 1.5l0.1 45.3c0 0.6 0.4 1.2 0.9 1.5l39.2 22.8c0.5 0.3 1.3 0.3 1.7 0L255.3 372.2z" class="a"/><path d="M215.3 402.6c-0.4 0-0.8-0.1-1.1-0.3l-45.3-26.3c-0.6-0.4-1.1-1.2-1.1-1.9l-0.1-52.4c0-0.7 0.5-1.6 1.1-1.9l45.2-26.1c0.6-0.4 1.6-0.4 2.2 0l45.3 26.3c0.6 0.4 1.1 1.2 1.1 1.9l0.1 52.4c0 0.7-0.5 1.6-1.1 1.9l-45.2 26.1C216.1 402.5 215.7 402.6 215.3 402.6M215.1 294.4c-0.2 0-0.5 0-0.6 0.1l-45.2 26.1c-0.3 0.2-0.6 0.7-0.6 1.1l0.1 52.4c0 0.4 0.3 0.9 0.6 1.1l45.3 26.3c0.3 0.2 0.9 0.2 1.2 0l45.2-26.1c0.3-0.2 0.6-0.7 0.6-1.1l-0.1-52.4c0-0.4-0.3-0.9-0.6-1.1l-45.3-26.3C215.5 294.4 215.3 294.4 215.1 294.4M215.3 395.5c-0.4 0-0.8-0.1-1.1-0.3l-39.2-22.8c-0.6-0.4-1.1-1.2-1.1-1.9l-0.1-45.3c0-0.7 0.5-1.6 1.1-1.9l39.1-22.6c0.6-0.4 1.6-0.4 2.2 0l39.2 22.8c0.6 0.4 1.1 1.2 1.1 1.9l0.1 45.3c0 0.7-0.5 1.6-1.1 1.9l-39.1 22.6C216.1 395.4 215.7 395.5 215.3 395.5M215.1 301.4c-0.2 0-0.5 0-0.6 0.1l-39.1 22.6c-0.3 0.2-0.6 0.7-0.6 1.1l0.1 45.3c0 0.4 0.3 0.9 0.6 1.1l39.2 22.8c0.3 0.2 0.9 0.2 1.2 0l39.1-22.6c0.3-0.2 0.6-0.7 0.6-1.1l-0.1-45.3c0-0.4-0.3-0.9-0.6-1.1l-39.2-22.8C215.5 301.5 215.3 301.4 215.1 301.4" class="a"/><path d="M216.1 405.3c-0.5 0.3-1.3 0.3-1.7 0L166.1 377.3c-0.5-0.3-0.9-1-0.9-1.5l-0.1-55.8c0-0.6 0.4-1.2 0.9-1.5l48.2-27.8c0.5-0.3 1.3-0.3 1.7 0l48.3 28c0.5 0.3 0.9 1 0.9 1.5l0.1 55.8c0 0.6-0.4 1.2-0.9 1.5L216.1 405.3zM171.2 372.3c0 0.6 0.4 1.2 0.9 1.5l42.3 24.5c0.5 0.3 1.3 0.3 1.7 0l42.2-24.4c0.5-0.3 0.9-0.9 0.9-1.5l-0.1-48.9c0-0.5-0.4-1.2-0.9-1.5l-42.3-24.5c-0.5-0.3-1.3-0.3-1.7 0l-42.2 24.4c-0.5 0.3-0.9 0.9-0.9 1.5L171.2 372.3zM216.1 398.3c-0.5 0.3-1.3 0.3-1.7 0l-42.2-24.5c-0.5-0.3-0.9-1-0.9-1.5l-0.1-48.8c0-0.5 0.4-1.2 0.9-1.5l42.1-24.3c0.5-0.3 1.3-0.3 1.7 0l42.2 24.5c0.5 0.3 0.9 1 0.9 1.5l0.1 48.8c0 0.6-0.4 1.2-0.9 1.5L216.1 398.3zM177.3 368.8c0 0.6 0.4 1.2 0.9 1.5l36.2 21c0.5 0.3 1.3 0.3 1.7 0l36.1-20.8c0.5-0.3 0.9-0.9 0.9-1.5l-0.1-41.9c0-0.5-0.4-1.2-0.9-1.5l-36.2-21c-0.5-0.3-1.3-0.3-1.7 0l-36.1 20.8c-0.5 0.3-0.9 1-0.9 1.5L177.3 368.8z" class="a"/><path d="M215.3 406c-0.4 0-0.8-0.1-1.1-0.3l-48.3-28c-0.6-0.4-1.1-1.2-1.1-1.9l-0.1-55.8c0-0.7 0.5-1.6 1.1-1.9l48.2-27.8c0.6-0.4 1.6-0.4 2.2 0l48.3 28c0.6 0.4 1.1 1.2 1.1 1.9l0.1 55.8c0 0.7-0.5 1.6-1.1 1.9l-48.2 27.8C216.1 405.9 215.7 406 215.3 406M215.1 290.9c-0.2 0-0.5 0-0.6 0.1l-48.2 27.8c-0.3 0.2-0.6 0.7-0.6 1.1l0.1 55.8c0 0.4 0.3 0.9 0.6 1.1l48.3 28c0.3 0.2 0.9 0.2 1.2 0l48.2-27.8c0.3-0.2 0.6-0.7 0.6-1.1l-0.1-55.8c0-0.4-0.3-0.9-0.6-1.1l-48.3-28C215.5 291 215.3 290.9 215.1 290.9M215.3 399.1c-0.4 0-0.8-0.1-1.1-0.3l-42.3-24.5c-0.6-0.4-1.1-1.2-1.1-1.9l-0.1-48.9c0-0.7 0.5-1.6 1.1-1.9l42.2-24.4c0.6-0.4 1.6-0.4 2.2 0l42.3 24.5c0.6 0.4 1.1 1.2 1.1 1.9l0.1 48.9c0 0.7-0.5 1.6-1.1 1.9l-42.2 24.4C216.1 399 215.7 399.1 215.3 399.1M215.1 298c-0.2 0-0.5 0-0.6 0.1l-42.1 24.3c-0.3 0.2-0.6 0.7-0.6 1.1l0.1 48.8c0 0.4 0.3 0.9 0.6 1.1l42.2 24.5c0.3 0.2 0.9 0.2 1.2 0l42.1-24.3c0.3-0.2 0.6-0.7 0.6-1.1l-0.1-48.8c0-0.4-0.3-0.9-0.6-1.1l-42.2-24.5C215.5 298 215.3 298 215.1 298M215.3 392.1c-0.4 0-0.8-0.1-1.1-0.3l-36.2-21c-0.6-0.4-1.1-1.2-1.1-1.9l-0.1-41.9c0-0.7 0.5-1.6 1.1-1.9l36.1-20.8c0.6-0.4 1.6-0.4 2.2 0l36.2 21c0.6 0.4 1.1 1.2 1.1 1.9l0.1 41.9c0 0.7-0.5 1.6-1.1 1.9l-36.1 20.8C216.1 392 215.7 392.1 215.3 392.1M215.1 304.9c-0.2 0-0.5 0-0.6 0.1l-36.1 20.8c-0.3 0.2-0.6 0.7-0.6 1.1l0.1 41.9c0 0.4 0.3 0.9 0.6 1.1l36.2 21c0.3 0.2 0.9 0.2 1.2 0L252 370.1c0.3-0.2 0.6-0.7 0.6-1.1l-0.1-41.9c0-0.4-0.3-0.9-0.6-1.1l-36.2-21C215.5 304.9 215.3 304.9 215.1 304.9" class="a"/><path d="M133 398.3c-0.5 0.3-1.1 0.1-1.4-0.4l-1.5-2.6c-0.3-0.5-0.1-1.1 0.4-1.4l39.5-22.8c0.5-0.3 1.1-0.1 1.4 0.4l1.5 2.6c0.3 0.5 0.1 1.1-0.4 1.4L133 398.3z" class="a"/><path d="M132.5 398.9c-0.5 0-1-0.3-1.3-0.7l-1.5-2.6c-0.2-0.3-0.3-0.7-0.1-1.1s0.4-0.7 0.7-0.9l39.5-22.8c0.3-0.2 0.8-0.3 1.1-0.1 0.4 0.1 0.7 0.4 0.9 0.7l1.5 2.6c0.4 0.7 0.2 1.6-0.5 2l-39.5 22.8C133 398.9 132.8 398.9 132.5 398.9M170.5 371.5c-0.1 0-0.2 0-0.2 0.1l-39.5 22.8c-0.1 0.1-0.2 0.2-0.2 0.3 0 0.1 0 0.3 0 0.4l1.5 2.6c0.1 0.2 0.4 0.3 0.7 0.2l39.5-22.8c0.2-0.1 0.3-0.4 0.2-0.7l-1.5-2.6c-0.1-0.1-0.2-0.2-0.3-0.2C170.6 371.5 170.6 371.5 170.5 371.5" class="a"/><path d="M131.9 402.4c-0.5 0.3-1.1 0.1-1.4-0.4l-4.5-7.8c-0.3-0.5-0.1-1.1 0.4-1.4l44.7-25.8c0.5-0.3 1.1-0.1 1.4 0.4l4.5 7.8c0.3 0.5 0.1 1.1-0.4 1.4L131.9 402.4z" class="a"/><path d="M131.4 403c-0.5 0-1-0.3-1.3-0.7l-4.5-7.8c-0.2-0.3-0.3-0.7-0.1-1.1 0.1-0.4 0.4-0.7 0.7-0.9l44.7-25.8c0.7-0.4 1.6-0.2 2 0.5l4.5 7.8c0.2 0.3 0.3 0.8 0.1 1.1 -0.1 0.4-0.4 0.7-0.7 0.9l-44.7 25.8C131.9 403 131.7 403 131.4 403M171.6 367.4c-0.1 0-0.2 0-0.2 0.1l-44.7 25.8c-0.1 0.1-0.2 0.2-0.2 0.3 0 0.1 0 0.3 0 0.4l4.5 7.8c0.1 0.2 0.4 0.3 0.7 0.2l44.7-25.8c0.1-0.1 0.2-0.2 0.2-0.3 0-0.1 0-0.3 0-0.4l-4.5-7.8C172 367.5 171.8 367.4 171.6 367.4" class="a"/><path d="M262.4 375.1c-0.5 0.3-1.1 0.1-1.4-0.4l-1.5-2.6c-0.3-0.5-0.1-1.1 0.4-1.4l39.5-22.8c0.5-0.3 1.1-0.1 1.4 0.4l1.5 2.6c0.3 0.5 0.1 1.1-0.4 1.4L262.4 375.1z" class="a"/><path d="M261.9 375.7c-0.5 0-1-0.3-1.3-0.7l-1.5-2.6c-0.2-0.3-0.3-0.7-0.1-1.1 0.1-0.4 0.4-0.7 0.7-0.9l39.5-22.8c0.3-0.2 0.8-0.3 1.1-0.1 0.4 0.1 0.7 0.4 0.9 0.7l1.5 2.6c0.4 0.7 0.2 1.6-0.5 2l-39.5 22.8C262.4 375.7 262.2 375.7 261.9 375.7M299.9 348.3c-0.1 0-0.2 0-0.2 0.1l-39.5 22.8c-0.1 0.1-0.2 0.2-0.2 0.3 0 0.1 0 0.3 0 0.4l1.5 2.6c0.1 0.2 0.4 0.3 0.7 0.2l39.5-22.8c0.2-0.1 0.3-0.4 0.2-0.7l-1.5-2.6c-0.1-0.1-0.2-0.2-0.3-0.2C300 348.3 300 348.3 299.9 348.3" class="a"/><path d="M261.3 379.2c-0.5 0.3-1.1 0.1-1.4-0.4l-4.5-7.8c-0.3-0.5-0.1-1.1 0.4-1.4l44.7-25.8c0.5-0.3 1.1-0.1 1.4 0.4l4.5 7.8c0.3 0.5 0.1 1.1-0.4 1.4L261.3 379.2z" class="a"/><path d="M260.8 379.8c-0.5 0-1-0.3-1.3-0.7l-4.5-7.8c-0.2-0.3-0.3-0.7-0.1-1.1 0.1-0.4 0.4-0.7 0.7-0.9l44.7-25.8c0.7-0.4 1.6-0.2 2 0.5l4.5 7.8c0.2 0.3 0.3 0.8 0.1 1.1 -0.1 0.4-0.4 0.7-0.7 0.9l-44.7 25.8C261.3 379.8 261.1 379.8 260.8 379.8M301 344.2c-0.1 0-0.2 0-0.2 0.1l-44.7 25.8c-0.1 0.1-0.2 0.2-0.2 0.3 0 0.1 0 0.3 0.1 0.4l4.5 7.8c0.1 0.2 0.4 0.3 0.7 0.2l44.7-25.8c0.1-0.1 0.2-0.2 0.2-0.3 0-0.1 0-0.3 0-0.4l-4.5-7.8C301.4 344.3 301.2 344.2 301 344.2" class="a"/><path d="M223.7 303.3c-0.3 0.5-0.9 0.6-1.4 0.4l-39.5-22.9c-0.5-0.3-0.6-0.9-0.4-1.4l1.5-2.6c0.3-0.5 0.9-0.6 1.4-0.4l39.5 22.9c0.5 0.3 0.6 0.9 0.4 1.4L223.7 303.3z" class="a"/><path d="M222.9 304.3c-0.3 0-0.5-0.1-0.7-0.2l-39.5-22.9c-0.3-0.2-0.6-0.5-0.7-0.9s0-0.8 0.2-1.1l1.5-2.6c0.4-0.7 1.3-1 2.1-0.5l39.5 22.9c0.3 0.2 0.6 0.5 0.7 0.9 0.1 0.4 0.1 0.8-0.2 1.1l-1.5 2.6C223.9 304 223.4 304.3 222.9 304.3M184.9 276.8c-0.2 0-0.3 0.1-0.4 0.2l-1.5 2.6c-0.1 0.1-0.1 0.2 0 0.4 0 0.1 0.1 0.2 0.2 0.3l39.5 22.9c0.2 0.1 0.5 0.1 0.7-0.2l1.5-2.6c0.1-0.1 0.1-0.2 0.1-0.4 0-0.1-0.1-0.2-0.2-0.3l-39.5-22.9C185.1 276.8 185 276.8 184.9 276.8" class="a"/><path d="M224.8 307.4c-0.3 0.5-0.9 0.6-1.4 0.4l-44.7-25.9c-0.5-0.3-0.6-0.9-0.4-1.4l4.5-7.8c0.3-0.5 0.9-0.6 1.4-0.4l44.7 25.9c0.5 0.3 0.6 0.9 0.4 1.4L224.8 307.4z" class="a"/><path d="M224 308.4c-0.3 0-0.5-0.1-0.7-0.2l-44.7-25.9c-0.3-0.2-0.6-0.5-0.7-0.9 -0.1-0.4 0-0.8 0.2-1.1l4.5-7.8c0.4-0.7 1.3-1 2.1-0.5l44.7 25.9c0.3 0.2 0.6 0.5 0.7 0.9 0.1 0.4 0.1 0.8-0.2 1.1l-4.5 7.8C225 308.1 224.5 308.4 224 308.4M183.8 272.7c-0.2 0-0.3 0.1-0.4 0.3l-4.5 7.8c-0.1 0.1-0.1 0.2 0 0.4 0 0.1 0.1 0.2 0.2 0.3l44.7 25.9c0.2 0.1 0.5 0.1 0.7-0.2l4.5-7.8c0.1-0.1 0.1-0.2 0-0.4 0-0.1-0.1-0.2-0.2-0.3l-44.7-25.9C184 272.7 183.9 272.7 183.8 272.7" class="a"/><path d="M170.1 324.4c-0.3 0.5-0.9 0.6-1.4 0.4l-39.5-22.9c-0.5-0.3-0.6-0.9-0.4-1.4l1.5-2.6c0.3-0.5 0.9-0.6 1.4-0.4l39.5 22.9c0.5 0.3 0.6 0.9 0.4 1.4L170.1 324.4z" class="a"/><path d="M169.2 325.4c-0.3 0-0.5-0.1-0.7-0.2l-39.5-22.9c-0.3-0.2-0.6-0.5-0.7-0.9 -0.1-0.4 0-0.8 0.2-1.1l1.5-2.6c0.4-0.7 1.3-1 2.1-0.5l39.5 22.9c0.3 0.2 0.6 0.5 0.7 0.9 0.1 0.4 0 0.8-0.2 1.1l-1.5 2.6C170.3 325.1 169.7 325.4 169.2 325.4M131.3 297.9c-0.2 0-0.3 0.1-0.4 0.2l-1.5 2.6c-0.1 0.1-0.1 0.2 0 0.4 0 0.1 0.1 0.2 0.2 0.3l39.5 22.9c0.2 0.1 0.5 0.1 0.7-0.2l1.5-2.6c0.1-0.1 0.1-0.2 0.1-0.4 0-0.1-0.1-0.2-0.2-0.3l-39.5-22.9C131.4 297.9 131.3 297.9 131.3 297.9" class="a"/><path d="M171.2 328.5c-0.3 0.5-0.9 0.6-1.4 0.4l-44.7-25.9c-0.5-0.3-0.6-0.9-0.4-1.4l4.5-7.8c0.3-0.5 0.9-0.6 1.4-0.4l44.7 25.9c0.5 0.3 0.6 0.9 0.4 1.4L171.2 328.5z" class="a"/><path d="M170.3 329.5c-0.3 0-0.5-0.1-0.7-0.2l-44.7-25.9c-0.3-0.2-0.6-0.5-0.7-0.9s0-0.8 0.2-1.1l4.5-7.8c0.4-0.7 1.3-1 2.1-0.5l44.7 25.9c0.3 0.2 0.6 0.5 0.7 0.9s0 0.8-0.2 1.1l-4.5 7.8C171.3 329.2 170.8 329.5 170.3 329.5M130.2 293.8c-0.2 0-0.3 0.1-0.4 0.3l-4.5 7.8c-0.1 0.1-0.1 0.2 0 0.4 0 0.1 0.1 0.2 0.2 0.3l44.7 25.9c0.2 0.1 0.5 0.1 0.7-0.2l4.5-7.8c0.1-0.1 0.1-0.2 0.1-0.4 0-0.1-0.1-0.2-0.2-0.3l-44.7-25.9C130.3 293.8 130.3 293.8 130.2 293.8" class="a"/><path d="M136.7 301.5c0 0.6-0.4 1.2-0.9 1.5l-45.3 26.3c-0.5 0.3-1.3 0.3-1.7 0l-45.2-26.1c-0.5-0.3-0.9-0.9-0.9-1.5l0.1-52.4c0-0.5 0.4-1.2 0.9-1.5l45.3-26.3c0.5-0.3 1.3-0.3 1.7 0l45.2 26.1c0.5 0.3 0.9 0.9 0.9 1.5L136.7 301.5zM88.8 322.2c0.5 0.3 1.3 0.3 1.7 0l39.2-22.8c0.5-0.3 0.9-1 0.9-1.5l0.1-45.3c0-0.5-0.4-1.2-0.9-1.5l-39.1-22.6c-0.5-0.3-1.3-0.3-1.7 0l-39.2 22.8c-0.5 0.3-0.9 1-0.9 1.5l-0.1 45.3c0 0.6 0.4 1.2 0.9 1.5L88.8 322.2z" class="a"/><path d="M89.7 330c-0.4 0-0.8-0.1-1.1-0.3l-45.2-26.1c-0.6-0.4-1.1-1.2-1.1-1.9l0.1-52.4c0-0.7 0.5-1.6 1.1-1.9l45.3-26.3c0.6-0.4 1.6-0.4 2.2 0l45.2 26.1c0.6 0.4 1.1 1.2 1.1 1.9l-0.1 52.4c0 0.7-0.5 1.6-1.1 1.9l-45.3 26.3C90.5 329.9 90.1 330 89.7 330M89.9 221.8c-0.2 0-0.5 0-0.6 0.1l-45.3 26.3c-0.3 0.2-0.6 0.7-0.6 1.1l-0.1 52.4c0 0.4 0.3 0.9 0.6 1.1l45.2 26.1c0.3 0.2 0.9 0.2 1.2 0l45.3-26.3c0.3-0.2 0.6-0.7 0.6-1.1l0.1-52.4c0-0.4-0.3-0.9-0.6-1.1l-45.2-26.1C90.3 221.9 90.1 221.8 89.9 221.8M89.6 322.9c-0.4 0-0.8-0.1-1.1-0.3l-39.1-22.6c-0.6-0.4-1.1-1.2-1.1-1.9l0.1-45.3c0-0.7 0.5-1.6 1.1-1.9l39.2-22.8c0.6-0.4 1.6-0.4 2.2 0l39.1 22.6c0.6 0.4 1.1 1.2 1.1 1.9l-0.1 45.3c0 0.7-0.5 1.6-1.1 1.9l-39.2 22.8C90.4 322.8 90 322.9 89.6 322.9M89 321.8c0.3 0.2 0.9 0.2 1.2 0l39.2-22.8c0.3-0.2 0.6-0.7 0.6-1.1l0.1-45.3c0-0.4-0.3-0.9-0.6-1.1l-39.1-22.6c-0.3-0.2-0.9-0.2-1.2 0l-39.2 22.8c-0.3 0.2-0.6 0.7-0.6 1.1l-0.1 45.3c0 0.4 0.3 0.9 0.6 1.1L89 321.8z" class="a"/><path d="M90.5 332.7c-0.5 0.3-1.3 0.3-1.7 0l-48.2-27.8c-0.5-0.3-0.9-0.9-0.9-1.5l0.1-55.8c0-0.5 0.4-1.2 0.9-1.5l48.3-28c0.5-0.3 1.3-0.3 1.7 0l48.2 27.8c0.5 0.3 0.9 1 0.9 1.5l-0.1 55.8c0 0.6-0.4 1.2-0.9 1.5L90.5 332.7zM45.7 299.9c0 0.6 0.4 1.2 0.9 1.5l42.2 24.4c0.5 0.3 1.3 0.3 1.7 0l42.3-24.5c0.5-0.3 0.9-1 0.9-1.5l0.1-48.9c0-0.5-0.4-1.2-0.9-1.5l-42.2-24.4c-0.5-0.3-1.3-0.3-1.7 0l-42.3 24.5c-0.5 0.3-0.9 1-0.9 1.5L45.7 299.9zM90.5 325.7c-0.5 0.3-1.3 0.3-1.7 0l-42.1-24.3c-0.5-0.3-0.9-0.9-0.9-1.5l0.1-48.8c0-0.5 0.4-1.2 0.9-1.5l42.2-24.5c0.5-0.3 1.3-0.3 1.7 0l42.1 24.3c0.5 0.3 0.9 1 0.9 1.5l-0.1 48.8c0 0.6-0.4 1.2-0.9 1.5L90.5 325.7zM51.8 296.4c0 0.6 0.4 1.2 0.9 1.5l36.1 20.8c0.5 0.3 1.3 0.3 1.7 0l36.2-21c0.5-0.3 0.9-1 0.9-1.5l0.1-41.9c0-0.5-0.4-1.2-0.9-1.5l-36.1-20.8c-0.5-0.3-1.3-0.3-1.7 0l-36.2 21c-0.5 0.3-0.9 1-0.9 1.5L51.8 296.4z" class="a"/><path d="M89.7 333.4c-0.4 0-0.8-0.1-1.1-0.3l-48.2-27.8c-0.6-0.4-1.1-1.2-1.1-1.9l0.1-55.8c0-0.7 0.5-1.6 1.1-1.9l48.3-28c0.6-0.4 1.6-0.4 2.2 0l48.2 27.8c0.6 0.4 1.1 1.2 1.1 1.9l-0.1 55.8c0 0.7-0.5 1.6-1.1 1.9L90.8 333.2C90.5 333.3 90.1 333.4 89.7 333.4M89.8 218.3c-0.2 0-0.5 0-0.6 0.1l-48.3 28c-0.3 0.2-0.6 0.7-0.6 1.1l-0.1 55.8c0 0.4 0.3 0.9 0.6 1.1l48.2 27.8c0.3 0.2 0.9 0.2 1.2 0l48.3-28c0.3-0.2 0.6-0.7 0.6-1.1l0.1-55.8c0-0.4-0.3-0.9-0.6-1.1L90.5 218.5C90.3 218.4 90.1 218.3 89.8 218.3M89.6 326.5c-0.4 0-0.8-0.1-1.1-0.3l-42.2-24.4c-0.6-0.4-1.1-1.2-1.1-1.9l0.1-48.9c0-0.7 0.5-1.6 1.1-1.9l42.3-24.5c0.6-0.4 1.6-0.4 2.2 0l42.2 24.4c0.6 0.4 1.1 1.2 1.1 1.9l-0.1 48.9c0 0.7-0.5 1.6-1.1 1.9l-42.3 24.5C90.4 326.4 90 326.5 89.6 326.5M89.9 225.4c-0.2 0-0.5 0-0.6 0.1l-42.2 24.5c-0.3 0.2-0.6 0.7-0.6 1.1l-0.1 48.8c0 0.4 0.3 0.9 0.6 1.1l42.1 24.3c0.3 0.2 0.9 0.2 1.2 0l42.2-24.5c0.3-0.2 0.6-0.7 0.6-1.1l0.1-48.8c0-0.4-0.3-0.9-0.6-1.1l-42.1-24.3C90.3 225.4 90.1 225.4 89.9 225.4M89.6 319.5c-0.4 0-0.8-0.1-1.1-0.3l-36.1-20.8c-0.6-0.4-1.1-1.2-1.1-1.9l0.1-41.9c0-0.7 0.5-1.6 1.1-1.9l36.2-21c0.6-0.4 1.6-0.4 2.2 0l36.1 20.8c0.6 0.4 1.1 1.2 1.1 1.9l-0.1 41.9c0 0.7-0.5 1.6-1.1 1.9l-36.2 21C90.4 319.4 90 319.5 89.6 319.5M52.3 296.4c0 0.4 0.3 0.9 0.6 1.1l36.1 20.8c0.3 0.2 0.9 0.2 1.2 0l36.2-21c0.3-0.2 0.6-0.7 0.6-1.1l0.1-41.9c0-0.4-0.3-0.9-0.6-1.1l-36.1-20.8c-0.3-0.2-0.9-0.2-1.2 0L53 253.5c-0.3 0.2-0.6 0.7-0.6 1.1L52.3 296.4z" class="a"/><path d="M46 251.9c-0.3 0.5-0.9 0.6-1.4 0.4L5.1 229.4c-0.5-0.3-0.6-0.9-0.4-1.4l1.5-2.6c0.3-0.5 0.9-0.6 1.4-0.4l39.5 22.8c0.5 0.3 0.6 0.9 0.4 1.4L46 251.9z" class="a"/><path d="M45.1 252.9c-0.3 0-0.5-0.1-0.7-0.2l-39.5-22.8c-0.7-0.4-1-1.3-0.5-2l1.5-2.6c0.2-0.3 0.5-0.6 0.9-0.7 0.4-0.1 0.8-0.1 1.1 0.1l39.5 22.8c0.3 0.2 0.6 0.5 0.7 0.9 0.1 0.4 0.1 0.8-0.1 1.1l-1.5 2.6C46.1 252.6 45.6 252.9 45.1 252.9M7.1 225.4c0 0-0.1 0-0.1 0 -0.1 0-0.2 0.1-0.3 0.2l-1.5 2.6c-0.1 0.2-0.1 0.5 0.2 0.7l39.5 22.8c0.2 0.1 0.5 0.1 0.7-0.2l1.5-2.6c0.1-0.1 0.1-0.2 0-0.4 0-0.1-0.1-0.2-0.2-0.3l-39.5-22.8C7.3 225.5 7.2 225.4 7.1 225.4" class="a"/><path d="M47.1 256c-0.3 0.5-0.9 0.6-1.4 0.4L1 230.5c-0.5-0.3-0.6-0.9-0.4-1.4l4.5-7.8c0.3-0.5 0.9-0.6 1.4-0.4l44.7 25.8c0.5 0.3 0.6 0.9 0.4 1.4L47.1 256z" class="a"/><path d="M46.2 257c-0.3 0-0.5-0.1-0.7-0.2L0.8 230.9c-0.3-0.2-0.6-0.5-0.7-0.9 -0.1-0.4-0.1-0.8 0.1-1.1l4.5-7.8c0.4-0.7 1.3-1 2-0.5l44.7 25.8c0.3 0.2 0.6 0.5 0.7 0.9 0.1 0.4 0.1 0.8-0.1 1.1l-4.5 7.8C47.2 256.7 46.7 257 46.2 257M6 221.3c-0.2 0-0.3 0.1-0.4 0.3l-4.5 7.8c-0.1 0.1-0.1 0.2 0 0.4 0 0.1 0.1 0.2 0.2 0.3l44.7 25.8c0.2 0.1 0.5 0.1 0.7-0.2l4.5-7.8c0.1-0.1 0.1-0.2 0-0.4 0-0.1-0.1-0.2-0.2-0.3l-44.7-25.8C6.2 221.4 6.1 221.3 6 221.3" class="a"/><path d="M130.8 352.3c-0.3 0.5-0.9 0.6-1.4 0.4L89.9 329.9c-0.5-0.3-0.6-0.9-0.4-1.4l1.5-2.6c0.3-0.5 0.9-0.6 1.4-0.4l39.5 22.8c0.5 0.3 0.6 0.9 0.4 1.4L130.8 352.3z" class="a"/><path d="M129.9 353.3c-0.3 0-0.5-0.1-0.7-0.2l-39.5-22.8c-0.7-0.4-1-1.3-0.5-2l1.5-2.6c0.2-0.3 0.5-0.6 0.9-0.7 0.4-0.1 0.8-0.1 1.1 0.1l39.5 22.8c0.3 0.2 0.6 0.5 0.7 0.9 0.1 0.4 0.1 0.8-0.1 1.1l-1.5 2.6C130.9 353 130.4 353.3 129.9 353.3M91.9 325.9c0 0-0.1 0-0.1 0 -0.1 0-0.2 0.1-0.3 0.2l-1.5 2.6c-0.1 0.2-0.1 0.5 0.2 0.7l39.5 22.8c0.2 0.1 0.5 0.1 0.7-0.2l1.5-2.6c0.1-0.1 0.1-0.2 0-0.4 0-0.1-0.1-0.2-0.2-0.3l-39.5-22.8C92.1 325.9 92 325.9 91.9 325.9" class="a"/><path d="M131.9 356.4c-0.3 0.5-0.9 0.6-1.4 0.4l-44.7-25.8c-0.5-0.3-0.6-0.9-0.4-1.4l4.5-7.8c0.3-0.5 0.9-0.6 1.4-0.4l44.7 25.8c0.5 0.3 0.6 0.9 0.4 1.4L131.9 356.4z" class="a"/><path d="M131 357.4c-0.3 0-0.5-0.1-0.7-0.2l-44.7-25.8c-0.3-0.2-0.6-0.5-0.7-0.9 -0.1-0.4-0.1-0.8 0.1-1.1l4.5-7.8c0.4-0.7 1.3-1 2-0.5l44.7 25.8c0.3 0.2 0.6 0.5 0.7 0.9s0.1 0.8-0.1 1.1l-4.5 7.8C132 357.1 131.5 357.4 131 357.4M90.8 321.8c-0.2 0-0.3 0.1-0.4 0.3l-4.5 7.8c-0.1 0.1-0.1 0.2 0 0.4 0 0.1 0.1 0.2 0.2 0.3l44.7 25.8c0.2 0.1 0.5 0.1 0.7-0.2l4.5-7.8c0.1-0.1 0.1-0.2 0-0.4 0-0.1-0.1-0.2-0.2-0.3l-44.7-25.8C91 321.8 90.9 321.8 90.8 321.8" class="a"/><path d="M136.7 259.5c0 0.6-0.5 1-1 1l-3 0c-0.5 0-1-0.5-1-1l0.1-45.6c0-0.5 0.5-1 1-1l3 0c0.6 0 1 0.5 1 1L136.7 259.5z" class="a"/><path d="M135.7 261h0l-3 0c-0.4 0-0.8-0.2-1.1-0.4 -0.3-0.3-0.4-0.7-0.4-1.1l0.1-45.6c0-0.4 0.2-0.8 0.4-1.1 0.3-0.3 0.7-0.4 1.1-0.4l3 0c0.8 0 1.5 0.7 1.5 1.5l-0.1 45.6c0 0.4-0.2 0.8-0.4 1.1C136.5 260.8 136.1 261 135.7 261M132.8 213.3c-0.1 0-0.3 0.1-0.4 0.1 -0.1 0.1-0.1 0.2-0.1 0.4l-0.1 45.6c0 0.1 0.1 0.3 0.1 0.4 0.1 0.1 0.2 0.1 0.4 0.1l3 0h0c0.1 0 0.3-0.1 0.4-0.1 0.1-0.1 0.1-0.2 0.1-0.4l0.1-45.6c0-0.3-0.2-0.5-0.5-0.5L132.8 213.3 132.8 213.3z" class="a"/><path d="M139.7 262.5c0 0.6-0.5 1-1 1l-9 0c-0.5 0-1-0.5-1-1l0.1-51.6c0-0.5 0.5-1 1-1l9 0c0.6 0 1 0.5 1 1L139.7 262.5z" class="a"/><path d="M138.7 264h0l-9 0c-0.8 0-1.5-0.7-1.5-1.5l0.1-51.6c0-0.4 0.2-0.8 0.4-1.1 0.3-0.3 0.7-0.4 1.1-0.4h0l9 0c0.8 0 1.5 0.7 1.5 1.5l-0.1 51.6c0 0.4-0.2 0.8-0.4 1.1C139.5 263.8 139.1 264 138.7 264M129.8 210.3c-0.1 0-0.3 0.1-0.4 0.1 -0.1 0.1-0.1 0.2-0.1 0.4l-0.1 51.6c0 0.3 0.2 0.5 0.5 0.5l9 0h0c0.1 0 0.3-0.1 0.4-0.1 0.1-0.1 0.1-0.2 0.1-0.4l0.1-51.6c0-0.3-0.2-0.5-0.5-0.5L129.8 210.3 129.8 210.3z" class="a"/><path d="M91.7 223.6c0 0.6-0.5 1-1 1l-3 0c-0.5 0-1-0.5-1-1l0.1-45.6c0-0.5 0.5-1 1-1l3 0c0.6 0 1 0.5 1 1L91.7 223.6z" class="a"/><path d="M90.7 225.1h0l-3 0c-0.4 0-0.8-0.2-1.1-0.4 -0.3-0.3-0.4-0.7-0.4-1.1l0.1-45.6c0-0.4 0.2-0.8 0.4-1.1 0.3-0.3 0.7-0.4 1.1-0.4h0l3 0c0.8 0 1.5 0.7 1.5 1.5l-0.1 45.6c0 0.4-0.2 0.8-0.4 1.1C91.4 224.9 91.1 225.1 90.7 225.1M87.8 177.4c-0.1 0-0.3 0.1-0.4 0.1 -0.1 0.1-0.1 0.2-0.1 0.4l-0.1 45.6c0 0.3 0.2 0.5 0.5 0.5l3 0c0.1 0 0.3-0.1 0.4-0.1 0.1-0.1 0.1-0.2 0.1-0.4l0.1-45.6c0-0.3-0.2-0.5-0.5-0.5L87.8 177.4 87.8 177.4z" class="a"/><path d="M94.7 226.6c0 0.6-0.5 1-1 1l-9 0c-0.5 0-1-0.5-1-1l0.1-51.6c0-0.5 0.5-1 1-1l9 0c0.6 0 1 0.5 1 1L94.7 226.6z" class="a"/><path d="M93.7 228.1h0l-9 0c-0.8 0-1.5-0.7-1.5-1.5l0.1-51.6c0-0.4 0.2-0.8 0.4-1.1 0.3-0.3 0.6-0.5 1.1-0.4l9 0c0.8 0 1.5 0.7 1.5 1.5l-0.1 51.6c0 0.4-0.2 0.8-0.4 1.1C94.4 227.9 94.1 228.1 93.7 228.1M84.8 174.4c-0.1 0-0.3 0.1-0.4 0.1 -0.1 0.1-0.1 0.2-0.1 0.4l-0.1 51.6c0 0.3 0.2 0.5 0.5 0.5l9 0h0c0.1 0 0.3-0.1 0.4-0.1 0.1-0.1 0.1-0.2 0.1-0.4l0.1-51.6c0-0.3-0.2-0.5-0.5-0.5L84.8 174.4 84.8 174.4z" class="a"/><rect x="-183.7" y="-132" width="800" height="800" fill="none"/></svg>
